<svg width="21" height="11" viewBox="0 0 21 11" fill="none" xmlns="http://www.w3.org/2000/svg">
<path d="M18.8128 0.782423C18.9082 0.692204 19.0205 0.621675 19.1433 0.57486C19.266 0.528044 19.3967 0.505859 19.528 0.509574C19.6593 0.513288 19.7886 0.542829 19.9085 0.596507C20.0284 0.650186 20.1365 0.726952 20.2268 0.822423C20.317 0.917894 20.3875 1.0302 20.4343 1.15293C20.4811 1.27566 20.5033 1.40641 20.4996 1.53771C20.4959 1.66901 20.4663 1.7983 20.4127 1.91818C20.359 2.03807 20.2822 2.1462 20.1868 2.23642L11.1868 10.7364C11.0011 10.912 10.7553 11.0098 10.4998 11.0098C10.2442 11.0098 9.99842 10.912 9.81275 10.7364L0.811751 2.23642C0.71419 2.1468 0.635407 2.03869 0.579983 1.91836C0.524559 1.79803 0.493595 1.66789 0.488892 1.5355C0.484188 1.4031 0.505839 1.27109 0.552584 1.14714C0.599329 1.02318 0.670239 0.909746 0.761192 0.813426C0.852146 0.717106 0.961334 0.639817 1.08241 0.586051C1.20349 0.532285 1.33404 0.503113 1.46649 0.500228C1.59893 0.497343 1.73063 0.520804 1.85394 0.569248C1.97724 0.617692 2.08969 0.690153 2.18475 0.782423L10.4998 8.63442L18.8128 0.782423Z" fill="#939393"/>
</svg>
