<svg width="8" height="14" viewBox="0 0 8 14" fill="none" xmlns="http://www.w3.org/2000/svg">
<path d="M7.23608 6.42773C7.38236 6.58245 7.46387 6.7873 7.46387 7.00023C7.46387 7.21311 7.3824 7.41791 7.23618 7.57262C7.23617 7.57264 7.23615 7.57265 7.23614 7.57267C7.23612 7.57269 7.2361 7.57271 7.23608 7.57273L2.27889 12.8221C2.20446 12.9028 2.11483 12.9679 2.01514 13.0138C1.91487 13.06 1.80642 13.0858 1.69609 13.0897C1.58576 13.0937 1.47575 13.0756 1.37245 13.0367C1.26916 12.9977 1.17463 12.9386 1.09436 12.8628C1.01409 12.787 0.949687 12.696 0.904881 12.5951C0.860077 12.4942 0.835766 12.3854 0.833362 12.2751C0.830959 12.1647 0.850509 12.055 0.890879 11.9522L1.12356 12.0436L0.89088 11.9522C0.931024 11.85 0.990959 11.7568 1.06724 11.6779L5.48438 7.00025L1.06621 2.32268C0.991035 2.24313 0.932265 2.14955 0.893255 2.04728C0.854246 1.94502 0.83576 1.83607 0.838855 1.72666C0.84195 1.61725 0.866565 1.50952 0.911294 1.40962C0.956023 1.30972 1.01999 1.21962 1.09954 1.14444C1.1791 1.06926 1.27268 1.01049 1.37494 0.971482C1.47721 0.932472 1.58616 0.913986 1.69557 0.917081C1.80498 0.920176 1.91271 0.944791 2.01261 0.98952C2.1125 1.03425 2.20261 1.09822 2.27779 1.17777L2.27784 1.17782L7.23608 6.42773ZM7.23608 6.42773L7.05442 6.59948M7.23608 6.42773L7.23617 6.42782L7.05442 6.59948M7.05442 6.59948C7.15681 6.70778 7.21387 6.85118 7.21387 7.00023C7.21387 7.14927 7.15681 7.29267 7.05442 7.40098L2.09608 12.6516M7.05442 6.59948L2.09608 12.6516M2.09608 12.6516C2.0438 12.7085 1.98074 12.7544 1.91055 12.7868C1.84036 12.8191 1.76444 12.8372 1.68721 12.8399C1.60998 12.8426 1.53297 12.83 1.46067 12.8027C1.38836 12.7755 1.32219 12.7341 1.266 12.6811L2.09608 12.6516Z" fill="#0F0F0F" stroke="#0F0F0F" stroke-width="0.5"/>
</svg>
