<svg width="16" height="17" viewBox="0 0 16 17" fill="none" xmlns="http://www.w3.org/2000/svg">
<path d="M10.0302 1.90472L10.0302 1.90476L4.36356 7.90468C4.36353 7.90471 4.36351 7.90473 4.36349 7.90476C4.2114 8.06566 4.12666 8.27868 4.12666 8.50008C4.12666 8.72149 4.2114 8.9345 4.36348 9.0954C4.3635 9.09543 4.36353 9.09546 4.36356 9.09548L10.0293 15.0951C10.1067 15.1792 10.2001 15.2471 10.3039 15.2949L10.3876 15.1133L10.3039 15.2949C10.4082 15.343 10.521 15.3698 10.6357 15.3739C10.7505 15.3779 10.8649 15.3592 10.9723 15.3187C11.0797 15.2782 11.1781 15.2167 11.2615 15.1379C11.345 15.059 11.412 14.9644 11.4586 14.8595C11.5052 14.7545 11.5305 14.6414 11.533 14.5266C11.5355 14.4118 11.5151 14.2977 11.4732 14.1908C11.4313 14.0844 11.3689 13.9873 11.2894 13.9052L6.18532 8.5001L11.2903 3.09545C11.2903 3.09544 11.2903 3.09543 11.2903 3.09542C11.3685 3.01269 11.4296 2.91537 11.4701 2.80903C11.5107 2.70267 11.5299 2.58936 11.5267 2.47557C11.5235 2.36178 11.4979 2.24974 11.4514 2.14585C11.4049 2.04195 11.3383 1.94824 11.2556 1.87005C11.1729 1.79187 11.0755 1.73075 10.9692 1.69018C10.8628 1.6496 10.7495 1.63038 10.6357 1.6336C10.5219 1.63682 10.4099 1.66242 10.306 1.70894C10.2021 1.75546 10.1084 1.82198 10.0302 1.90472Z" fill="#FDBB22" stroke="#FDBB22" stroke-width="0.4"/>
</svg>
