<svg width="16" height="16" viewBox="0 0 16 16" fill="none" xmlns="http://www.w3.org/2000/svg">
<path d="M11.1449 2.45808C11.205 2.39444 11.2521 2.31957 11.2833 2.23775C11.3145 2.15593 11.3293 2.06876 11.3268 1.98123C11.3243 1.89369 11.3046 1.8075 11.2688 1.72758C11.233 1.64766 11.1819 1.57556 11.1182 1.51542C11.0546 1.45527 10.9797 1.40825 10.8979 1.37704C10.8161 1.34583 10.7289 1.33104 10.6414 1.33352C10.5538 1.33599 10.4676 1.35569 10.3877 1.39147C10.3078 1.42726 10.2357 1.47844 10.1756 1.54208L4.50889 7.54208C4.39186 7.66586 4.32666 7.82974 4.32666 8.00008C4.32666 8.17043 4.39186 8.33431 4.50889 8.45809L10.1756 14.4588C10.2353 14.5238 10.3074 14.5763 10.3876 14.6133C10.4678 14.6502 10.5546 14.6709 10.6428 14.674C10.7311 14.6771 10.8191 14.6627 10.9017 14.6315C10.9844 14.6004 11.06 14.5531 11.1242 14.4925C11.1884 14.4318 11.24 14.359 11.2758 14.2783C11.3116 14.1976 11.3311 14.1106 11.333 14.0223C11.3349 13.934 11.3193 13.8462 11.287 13.764C11.2547 13.6818 11.2064 13.6068 11.1449 13.5434L5.91022 8.00008L11.1449 2.45808Z" fill="#FCFCFC"/>
</svg>
