<svg width="16" height="16" viewBox="0 0 16 16" fill="none" xmlns="http://www.w3.org/2000/svg">
<path d="M4.85511 2.45817C4.79497 2.39452 4.74795 2.31965 4.71674 2.23783C4.68553 2.15601 4.67074 2.06885 4.67321 1.98131C4.67569 1.89378 4.69538 1.80759 4.73117 1.72766C4.76695 1.64774 4.81813 1.57565 4.88178 1.5155C4.94543 1.45536 5.0203 1.40834 5.10212 1.37713C5.18394 1.34592 5.2711 1.33113 5.35863 1.3336C5.44617 1.33608 5.53236 1.35577 5.61228 1.39156C5.69221 1.42734 5.7643 1.47852 5.82445 1.54217L11.4911 7.54217C11.6081 7.66595 11.6733 7.82983 11.6733 8.00017C11.6733 8.17051 11.6081 8.33439 11.4911 8.45817L5.82445 14.4588C5.7647 14.5239 5.69262 14.5764 5.6124 14.6133C5.53218 14.6503 5.44542 14.6709 5.35716 14.6741C5.2689 14.6772 5.18089 14.6628 5.09825 14.6316C5.01562 14.6005 4.93999 14.5532 4.87578 14.4925C4.81157 14.4319 4.76004 14.3591 4.7242 14.2784C4.68835 14.1977 4.6689 14.1106 4.66698 14.0223C4.66506 13.934 4.6807 13.8462 4.713 13.764C4.74529 13.6818 4.7936 13.6069 4.85511 13.5435L10.0898 8.00017L4.85511 2.45817Z" fill="#B6FF58"/>
</svg>
