<svg width="500" height="591" viewBox="0 0 500 591" fill="none" xmlns="http://www.w3.org/2000/svg">
<g clip-path="url(#clip0_3168_5381)">
<path d="M218.052 560.717L216.462 567.674L216.845 568.09C216.76 568.303 216.675 568.515 216.573 568.728C215.728 570.636 214.763 572.488 213.682 574.273C212.254 576.645 210.656 578.933 208.998 581.178C208.089 582.419 207.153 583.652 206.218 584.877C206.193 584.919 206.164 584.958 206.133 584.996C206.144 584.952 206.158 584.91 206.176 584.869L205.87 584.801L204.11 577.164L203.574 578.372V578.38L202.707 580.378C202.775 580.744 202.843 581.101 202.928 581.458C202.92 581.45 202.92 581.433 202.911 581.424C202.903 581.416 202.903 581.416 202.903 581.407C202.792 581.169 202.673 580.94 202.563 580.702L201.236 583.746L198.55 583.134C197.139 582.402 195.728 581.663 194.325 580.897C175.163 570.497 157.42 557.222 145.476 539.151C140.728 531.952 137.139 524.052 134.841 515.74C130.31 499.225 131.092 481.452 139.338 466.697L139.339 466.694L139.34 466.691L139.343 466.69L139.347 466.689C139.551 466.315 139.763 465.941 139.984 465.566C140.146 465.992 140.299 466.417 140.469 466.842V466.851C142.685 472.625 145.36 478.213 148.468 483.561C148.707 483.978 148.945 484.394 149.2 484.802C156.792 497.552 166.686 508.78 178.376 517.917C178.408 517.948 178.442 517.976 178.478 518.002C178.519 518.036 178.561 518.067 178.606 518.095C181.207 520.136 183.897 522.055 186.674 523.853V523.861C188.841 525.273 191.069 526.608 193.33 527.875C198.15 530.562 203.396 533.147 207.902 536.37C212.28 539.491 215.969 543.208 217.933 548.182C218.086 548.582 218.231 548.982 218.358 549.381L214.856 560.19L218.052 560.717Z" fill="#F0F0F0"/>
<path d="M203.574 578.372V578.38L202.707 580.378C201.398 573.099 202.954 565.403 201.874 558.03C201.755 557.205 201.602 556.38 201.407 555.564C200.301 550.904 197.776 546.541 193.288 544.458C191.978 543.861 190.602 543.419 189.19 543.14C186.402 542.544 183.494 542.417 180.68 542.085C179.975 542 179.277 541.907 178.597 541.779C174.959 541.215 171.485 539.872 168.413 537.842C164.652 535.168 161.374 531.872 158.721 528.096C156.968 525.726 155.337 523.268 153.833 520.732C153.629 520.409 153.442 520.077 153.246 519.745C149.728 513.649 146.842 507.21 144.634 500.526C143.497 497.11 142.544 493.636 141.778 490.117C140.074 482.429 139.256 474.572 139.338 466.697C139.338 466.696 139.338 466.695 139.339 466.694C139.339 466.693 139.34 466.692 139.341 466.691C139.341 466.691 139.342 466.69 139.343 466.69C139.344 466.689 139.345 466.689 139.347 466.689C139.338 466.332 139.347 465.975 139.355 465.617C139.372 464.886 140.503 465.048 140.486 465.779C140.477 466.136 140.469 466.485 140.469 466.842V466.851C140.4 474.395 141.161 481.923 142.739 489.301C142.824 489.675 142.909 490.049 142.985 490.424C145.284 500.647 149.146 510.454 154.437 519.499C154.496 519.601 154.555 519.703 154.624 519.805C155.856 521.905 157.182 523.946 158.577 525.945C161.138 529.792 164.288 533.212 167.911 536.081C170.96 538.362 174.5 539.897 178.249 540.563C178.623 540.631 178.997 540.699 179.38 540.758C179.677 540.81 179.983 540.852 180.289 540.886C183.154 541.243 186.096 541.379 188.944 541.924C190.238 542.168 191.51 542.524 192.744 542.987C194.764 543.796 196.589 545.024 198.101 546.589C199.613 548.154 200.777 550.022 201.517 552.069C202.275 554.055 202.794 556.125 203.064 558.234C203.158 558.923 203.226 559.612 203.285 560.309V560.318C203.37 561.44 203.413 562.571 203.43 563.702C203.447 565.114 203.421 566.526 203.387 567.929C203.199 571.41 203.261 574.9 203.574 578.372Z" fill="white"/>
<path d="M154.317 520.494C151.077 522.14 147.358 522.58 143.824 521.736C140.29 520.893 137.171 518.82 135.023 515.888C134.591 515.293 135.494 514.593 135.927 515.189C137.922 517.923 140.828 519.853 144.12 520.632C147.413 521.411 150.875 520.987 153.883 519.436C154.537 519.1 154.967 520.159 154.317 520.494Z" fill="white"/>
<path d="M178.138 540.903C180.505 533.861 180.132 526.185 177.093 519.405C176.791 518.734 177.849 518.301 178.15 518.972C181.3 526.032 181.672 534.021 179.192 541.344C178.955 542.042 177.903 541.597 178.138 540.903Z" fill="white"/>
<path d="M142.408 489.406C143.795 489.031 145.066 488.317 146.108 487.328C147.15 486.34 147.93 485.108 148.378 483.743C148.606 483.043 149.659 483.489 149.433 484.184C148.93 485.69 148.067 487.049 146.918 488.144C145.769 489.238 144.37 490.035 142.842 490.464C142.702 490.516 142.546 490.513 142.408 490.455C142.269 490.397 142.158 490.289 142.097 490.152C142.04 490.012 142.041 489.855 142.099 489.715C142.158 489.575 142.269 489.465 142.408 489.406Z" fill="white"/>
<path d="M206.082 585.064C206.099 585.039 206.116 585.022 206.133 584.996C206.099 585.098 206.065 585.2 206.04 585.311L206.082 585.064Z" fill="#F0F0F0"/>
<path d="M231.357 532.714L230.167 536.881L222.855 535.512L220.433 542.987L220.016 544.271L218.358 549.382L214.856 560.19L218.052 560.717L216.462 567.674L216.845 568.09L216.964 568.218L217.755 569.085L222.566 574.341L209.406 585.609L207.298 585.124L206.218 584.877C206.193 584.919 206.164 584.959 206.133 584.996C206.144 584.953 206.158 584.91 206.176 584.869L205.87 584.801L204.11 577.164L203.574 578.372V578.38L202.707 580.379C202.775 580.744 202.843 581.101 202.928 581.459C202.92 581.45 202.92 581.433 202.911 581.425C202.903 581.416 202.903 581.416 202.903 581.408C202.792 581.169 202.673 580.94 202.563 580.702C200.879 577.19 199.273 573.626 197.785 570.021C194.118 561.337 191.242 552.34 189.19 543.14C189.105 542.74 189.012 542.34 188.944 541.932V541.924C187.696 535.975 186.937 529.934 186.674 523.861V523.853C186.538 520.528 186.572 517.199 186.776 513.878C187.313 505.294 189.198 496.848 192.361 488.85C192.378 488.808 192.395 488.774 192.412 488.731C198.474 473.475 209.143 460.243 223.646 453.193C224.25 452.887 224.87 452.598 225.491 452.326H225.508L225.516 452.317C225.907 452.147 226.29 451.986 226.681 451.816C226.554 452.258 226.418 452.7 226.298 453.151C224.583 459.093 223.355 465.165 222.626 471.307V471.315C222.558 471.783 222.498 472.268 222.447 472.744V472.752C220.843 487.566 222.002 502.549 225.865 516.939C225.873 516.982 225.89 517.016 225.899 517.058C227.341 522.401 229.165 527.633 231.357 532.714Z" fill="#F0F0F0"/>
<path d="M217.755 569.085C217.083 569.987 216.394 570.863 215.697 571.738C215.026 572.58 214.354 573.422 213.683 574.273C211.927 576.436 210.36 578.747 208.998 581.178C208.316 582.44 207.747 583.761 207.298 585.124L206.218 584.877C206.193 584.919 206.164 584.958 206.133 584.996C206.144 584.952 206.158 584.91 206.176 584.869C208.157 578.678 212.662 573.881 216.573 568.728C216.709 568.558 216.837 568.388 216.964 568.218L217.755 569.085Z" fill="white"/>
<path d="M226.962 452.292C226.741 452.572 226.511 452.862 226.299 453.151C224.641 455.302 223.074 457.522 221.597 459.809C218.968 463.845 216.632 468.066 214.609 472.438C214.448 472.778 214.286 473.126 214.133 473.475C209.804 483.028 206.982 493.195 205.768 503.613C205.751 503.715 205.742 503.809 205.734 503.911C205.453 506.343 205.272 508.784 205.19 511.233C204.919 515.845 205.375 520.471 206.541 524.941C206.711 525.528 206.898 526.106 207.102 526.667C207.614 528.043 208.254 529.367 209.015 530.622C209.562 531.538 210.17 532.415 210.835 533.249C211.234 533.76 211.651 534.261 212.093 534.746C212.348 535.027 212.611 535.307 212.875 535.588C213.096 535.801 213.308 536.022 213.53 536.234C215.825 538.462 218.358 540.529 220.433 542.987L220.016 544.271C218.018 541.736 215.442 539.636 213.121 537.425C211.664 536.054 210.338 534.551 209.16 532.935C209.007 532.714 208.845 532.493 208.701 532.263C207.913 531.112 207.233 529.891 206.669 528.615C206.38 527.977 206.116 527.322 205.878 526.642C204.489 522.245 203.857 517.644 204.008 513.036C204.035 510.083 204.211 507.134 204.535 504.2C204.569 503.817 204.612 503.443 204.663 503.06C205.525 496.076 207.097 489.197 209.355 482.532C212.214 474.076 216.145 466.022 221.053 458.568C222.456 456.433 223.944 454.35 225.516 452.317C225.721 452.037 225.933 451.764 226.154 451.484C226.605 450.906 227.412 451.713 226.962 452.292Z" fill="white"/>
<path d="M205.067 504.308C201.49 503.671 198.256 501.783 195.942 498.981C193.628 496.179 192.385 492.645 192.435 489.011C192.438 488.863 192.499 488.722 192.604 488.617C192.71 488.513 192.851 488.454 192.999 488.452C193.148 488.45 193.291 488.506 193.399 488.608C193.506 488.709 193.571 488.849 193.578 488.997C193.525 492.381 194.683 495.672 196.843 498.277C199.003 500.882 202.023 502.629 205.358 503.202C206.082 503.327 205.788 504.432 205.067 504.308Z" fill="white"/>
<path d="M211.803 534.949C217.932 530.752 222.254 524.399 223.908 517.156C224.071 516.438 225.176 516.729 225.013 517.446C223.278 524.98 218.767 531.583 212.38 535.937C211.771 536.351 211.198 535.362 211.803 534.949Z" fill="white"/>
<path d="M214.27 472.314C215.603 472.849 217.048 473.045 218.475 472.883C219.902 472.721 221.266 472.208 222.445 471.388C223.049 470.966 223.621 471.956 223.022 472.375C221.714 473.275 220.207 473.84 218.631 474.022C217.055 474.204 215.458 473.997 213.98 473.42C213.836 473.377 213.714 473.281 213.638 473.152C213.563 473.022 213.539 472.868 213.573 472.722C213.612 472.576 213.707 472.451 213.838 472.375C213.968 472.298 214.124 472.277 214.27 472.314Z" fill="white"/>
<path d="M335.464 95.1829C329.028 60.7248 339.161 21.5228 367.326 0.665283C365.73 38.7524 377.653 76.1768 400.986 106.317C410.026 117.908 421.288 129.859 420.938 144.556C420.721 153.701 415.777 162.221 409.261 168.639C402.745 175.058 394.718 179.685 386.788 184.241L385.553 186.162C362.305 159.931 341.9 129.641 335.464 95.1829Z" fill="#F0F0F0"/>
<path d="M367.839 1.19195C356.006 27.6829 352.818 57.23 358.729 85.6364C360.032 91.7144 361.883 97.7666 365.022 103.167C368.122 108.407 372.568 112.721 377.899 115.66C382.814 118.501 388.17 120.838 392.309 124.824C396.672 129.027 398.615 134.762 398.453 140.754C398.255 148.085 395.435 154.908 392.446 161.485C389.126 168.787 385.563 176.318 385.778 184.528C385.805 185.522 384.26 185.505 384.234 184.512C383.86 170.229 394.183 158.758 396.483 145.053C397.556 138.658 396.709 131.901 392.215 126.944C388.284 122.609 382.763 120.195 377.761 117.361C372.509 114.386 368.038 110.71 364.715 105.614C361.316 100.401 359.225 94.4087 357.772 88.3907C354.579 74.7195 353.555 60.6312 354.737 46.6417C355.998 30.6683 359.981 15.0282 366.514 0.398245C366.919 -0.507087 368.241 0.292528 367.839 1.19195Z" fill="white"/>
<path d="M356.287 76.6017C351.388 76.9466 346.526 75.5383 342.569 72.6283C338.612 69.7183 335.818 65.496 334.686 60.7156C334.46 59.7475 335.954 59.3511 336.18 60.3205C337.226 64.774 339.829 68.7067 343.519 71.409C347.209 74.1113 351.743 75.4051 356.304 75.0568C357.295 74.9823 357.273 76.5276 356.287 76.6017Z" fill="white"/>
<path d="M375.217 114.548C381.867 107.025 385.439 97.271 385.22 87.2307C385.197 86.236 386.741 86.2534 386.764 87.2469C386.973 97.6954 383.235 107.839 376.297 115.652C375.636 116.396 374.559 115.288 375.217 114.548Z" fill="white"/>
<path d="M357.807 31.6276C359.731 31.8892 361.689 31.6689 363.506 30.9864C365.323 30.3039 366.943 29.1807 368.219 27.7174C368.871 26.9651 369.947 28.0739 369.299 28.8213C367.882 30.4313 366.092 31.6697 364.086 32.4281C362.08 33.1866 359.919 33.4422 357.791 33.1724C357.588 33.1638 357.396 33.0783 357.255 32.9333C357.113 32.7883 357.031 32.5947 357.027 32.3919C357.03 32.1873 357.114 31.9923 357.26 31.8492C357.406 31.706 357.603 31.6264 357.807 31.6276Z" fill="white"/>
<path d="M482.505 29.1673C482.111 29.6487 481.717 30.13 481.327 30.624C476.066 37.1226 471.342 44.038 467.201 51.3019C466.871 51.8584 466.546 52.4274 466.234 52.9922C456.443 70.5991 450.006 89.8711 447.248 109.829C446.158 117.771 445.674 125.785 445.799 133.802C445.973 144.872 447.043 156.862 443.65 167.044C443.308 168.11 442.9 169.154 442.429 170.17L387.992 187.519C387.848 187.497 387.708 187.486 387.564 187.464L385.422 188.256C385.387 187.843 385.359 187.414 385.324 187.001C385.302 186.762 385.293 186.518 385.271 186.279C385.261 186.118 385.251 185.957 385.232 185.812C385.228 185.759 385.225 185.705 385.226 185.664C385.207 185.519 385.205 185.383 385.19 185.251C385.028 182.853 384.879 180.451 384.754 178.041C384.75 178.028 384.75 178.028 384.758 178.012C383.824 159.657 384.413 141.063 387.805 123.149C387.908 122.61 388.005 122.059 388.132 121.512C389.706 113.446 391.936 105.522 394.801 97.8189C396.383 93.6062 398.177 89.4762 400.176 85.445C405.362 75.0387 412.153 65.5132 420.298 57.2178C436.539 40.6832 457.885 29.5282 480.757 29.177C481.342 29.1685 481.916 29.1635 482.505 29.1673Z" fill="#F0F0F0"/>
<path d="M482.603 29.8974C457.21 43.9225 436.881 65.5943 424.503 91.8347C421.885 97.4726 419.72 103.42 418.976 109.622C418.297 115.672 419.251 121.795 421.738 127.352C423.952 132.581 426.823 137.672 427.728 143.348C428.682 149.331 426.782 155.08 423.046 159.767C418.475 165.501 412.117 169.251 405.772 172.701C398.727 176.533 391.348 180.4 386.579 187.085C386.001 187.895 384.779 186.95 385.356 186.142C393.653 174.512 408.8 171.57 418.885 162.013C423.591 157.553 426.982 151.648 426.377 144.983C425.848 139.155 422.892 133.902 420.604 128.627C418.202 123.089 416.844 117.461 417.258 111.391C417.681 105.182 419.619 99.1376 422.081 93.4575C427.76 80.6189 435.422 68.7534 444.786 58.2957C455.407 46.301 468 36.2121 482.022 28.4655C482.89 27.9863 483.465 29.4215 482.603 29.8974Z" fill="white"/>
<path d="M427.991 83.1507C423.872 80.4756 420.837 76.4228 419.429 71.7163C418.022 67.0097 418.332 61.9558 420.305 57.4571C420.708 56.5482 422.139 57.131 421.736 58.0411C419.89 62.2269 419.602 66.9347 420.922 71.3148C422.242 75.6948 425.083 79.4586 428.934 81.9269C429.77 82.4643 428.823 83.685 427.991 83.1507Z" fill="white"/>
<path d="M420.266 124.849C430.104 122.848 438.827 117.211 444.694 109.062C445.275 108.254 446.498 109.198 445.918 110.005C439.796 118.473 430.707 124.321 420.464 126.381C419.488 126.577 419.295 125.044 420.266 124.849Z" fill="white"/>
<path d="M456.274 48.1568C457.652 49.5241 459.348 50.5275 461.21 51.0771C463.072 51.6266 465.041 51.7049 466.94 51.3051C467.914 51.0971 468.106 52.6307 467.139 52.8373C465.038 53.2693 462.863 53.1801 460.805 52.5775C458.747 51.9749 456.867 50.8773 455.331 49.3806C455.174 49.2516 455.073 49.0679 455.047 48.8666C455.021 48.6654 455.072 48.4618 455.191 48.2972C455.316 48.1358 455.501 48.0305 455.703 48.0042C455.906 47.978 456.111 48.0328 456.274 48.1568Z" fill="white"/>
<path d="M132.686 54.0187C129.678 51.8948 126.387 49.6799 122.706 49.7684C113.797 49.9827 108.994 63.0467 100.094 62.5872C94.4188 62.2942 90.6511 56.5269 85.3665 54.4357C78.4866 51.7133 69.7313 57.0377 68.9807 64.4004L69.8643 63.5914C96.6081 70.1131 124.361 71.3957 151.592 67.3682C145.29 62.9184 138.988 58.4686 132.686 54.0187Z" fill="#F0F0F0"/>
<path d="M149.355 69.7324C166.428 69.7324 180.268 55.8879 180.268 38.8098C180.268 21.7317 166.428 7.88721 149.355 7.88721C132.282 7.88721 118.442 21.7317 118.442 38.8098C118.442 55.8879 132.282 69.7324 149.355 69.7324Z" fill="#FDBB22"/>
<path d="M221.715 32.9027C217.882 30.1959 213.687 27.3733 208.996 27.4862C197.643 27.7593 191.522 44.4081 180.18 43.8226C172.947 43.4492 168.145 36.0993 161.411 33.4342C152.643 29.9647 141.485 36.7502 140.528 46.1333L141.654 45.1024C175.737 53.4138 211.106 55.0482 245.809 49.9156C237.778 44.2446 229.746 38.5737 221.715 32.9027Z" fill="#F0F0F0"/>
<path d="M499.78 343.321L466.975 167.613C466.413 164.717 464.885 162.097 462.64 160.183C460.395 158.27 457.567 157.176 454.619 157.081C454.353 157.075 454.088 157.075 453.823 157.081L431.475 157.883L429.069 157.972L417.916 158.373L415.511 158.455L408.337 158.715L263.672 163.91C263.454 163.922 263.23 163.922 263.012 163.916L230.595 163.238L218.599 162.99L218.216 162.984L209.361 162.795L132.207 161.191L111.751 160.761L101.665 160.555L99.248 160.501L87.7468 160.266L85.3358 160.213L73.5693 159.971L71.1582 159.918L58.2304 159.646L56.2025 159.605L44.6718 159.363L42.8502 159.328H42.585C39.5238 159.34 36.5656 160.435 34.2333 162.419C31.9011 164.402 30.3449 167.146 29.8399 170.166L0.17015 352.497C-0.13115 354.344 -0.0274343 356.234 0.474111 358.037C0.975657 359.84 1.86302 361.512 3.07477 362.938C4.28653 364.364 5.79368 365.509 7.49181 366.295C9.18994 367.08 11.0385 367.487 12.9093 367.486H183.299C185.807 367.493 188.248 368.299 190.267 369.786L193.498 372.18C195.724 373.82 198.415 374.708 201.179 374.716H301.595C303.292 374.72 304.973 374.388 306.54 373.738C308.107 373.088 309.53 372.134 310.727 370.93C312.772 368.885 315.502 367.669 318.39 367.516L487.766 358.588C489.603 358.492 491.398 358.005 493.031 357.158C494.664 356.312 496.097 355.126 497.235 353.68C498.373 352.235 499.188 350.563 499.627 348.776C500.066 346.989 500.118 345.13 499.78 343.321Z" fill="#CCCCCC"/>
<path d="M472.935 338.545L454.648 157.317C454.642 157.24 454.63 157.158 454.619 157.081C454.276 154.186 452.848 151.528 450.622 149.645L411.284 116.865C409.574 115.428 407.447 114.579 405.218 114.441C387.221 113.285 295.724 109.004 261.951 138.329C260.926 139.221 259.719 139.878 258.413 140.253C257.107 140.628 255.735 140.712 254.394 140.499C253.049 140.281 251.767 139.775 250.636 139.016C249.504 138.257 248.55 137.262 247.838 136.1C244.967 131.623 241.204 127.785 236.785 124.825C234.801 123.447 232.734 122.193 230.595 121.069C228.703 120.073 226.646 119.106 224.406 118.174C222.478 117.372 220.421 116.599 218.216 115.862C206.785 112.041 191.505 109.187 171.085 108.232C162.614 107.831 153.406 107.778 143.72 108.067C134.878 108.326 125.481 108.863 115.795 109.665L115.654 109.671L50.1187 149.692C48.6496 150.609 47.4079 151.847 46.4877 153.314C45.5676 154.781 44.993 156.438 44.8074 158.16L44.6717 159.363L23.8623 345.355C23.6825 346.936 23.8278 348.536 24.289 350.058C24.7503 351.58 25.5178 352.992 26.5445 354.207C27.5439 355.391 28.7884 356.343 30.192 356.999C31.5955 357.655 33.1247 357.998 34.6738 358.004H196.151C198.298 358.015 200.378 358.753 202.052 360.098L209.102 365.747C210.939 367.223 213.213 368.048 215.569 368.094L286.569 369.255H286.74C288.533 369.252 290.295 368.794 291.863 367.923L305.557 360.316C306.806 359.62 308.197 359.217 309.624 359.136L462.659 351.052C464.151 350.972 465.609 350.579 466.938 349.898C468.268 349.218 469.439 348.265 470.376 347.101C471.35 345.916 472.077 344.55 472.516 343.08C472.956 341.611 473.098 340.069 472.935 338.545Z" fill="#E6E6E6"/>
<path d="M419.518 305.862L417.375 277.655L408.338 158.718L406.995 141.123C406.655 136.502 404.607 132.173 401.25 128.98C397.893 125.787 393.467 123.958 388.836 123.852C355.723 123.001 295.763 124.498 266.34 144.219C263.067 146.444 259.098 147.404 255.171 146.919C251.243 146.434 247.626 144.537 244.993 141.583C240.922 137.112 236.034 133.46 230.592 130.825C226.609 128.827 222.469 127.16 218.214 125.842C205.759 121.862 190.043 119.444 171.065 118.588L126.025 118.324H125.948C122.828 118.327 119.826 119.518 117.553 121.655C115.279 123.792 113.904 126.715 113.706 129.83L111.751 160.759L103.207 296.397C103.047 298.924 103.403 301.457 104.251 303.842C105.1 306.228 106.424 308.416 108.144 310.273C109.863 312.131 111.943 313.62 114.255 314.65C116.567 315.679 119.065 316.228 121.596 316.263C197.198 317.385 230.226 333.347 244.628 346.528C247.69 349.338 251.602 351.047 255.744 351.382C259.886 351.718 264.022 350.662 267.496 348.382C293.638 331.255 337.097 326.493 371.689 325.753C382.282 325.532 392.041 325.676 400.219 325.966C402.848 326.06 405.467 325.599 407.905 324.611C410.343 323.623 412.544 322.132 414.366 320.234C416.188 318.336 417.588 316.075 418.476 313.598C419.364 311.122 419.719 308.485 419.518 305.862Z" fill="white"/>
<path d="M44.1942 345.204C44.1659 345.204 44.1366 345.203 44.1083 345.2C43.9506 345.189 43.7967 345.147 43.6552 345.076C43.5138 345.006 43.3877 344.908 43.2841 344.789C43.1804 344.669 43.1013 344.531 43.0513 344.381C43.0012 344.231 42.9812 344.072 42.9923 343.915L56.0004 160.184C56.0097 160.026 56.0505 159.871 56.1205 159.729C56.1905 159.586 56.2883 159.459 56.408 159.355C56.5278 159.251 56.6671 159.172 56.8178 159.123C56.9686 159.074 57.1276 159.055 57.2857 159.068C57.4434 159.079 57.5973 159.121 57.7387 159.192C57.8801 159.262 58.0063 159.36 58.1099 159.48C58.2135 159.599 58.2926 159.738 58.3427 159.888C58.3928 160.038 58.4128 160.196 58.4016 160.354L45.3936 344.084C45.3724 344.388 45.2369 344.672 45.0143 344.88C44.7917 345.088 44.4986 345.204 44.1942 345.204Z" fill="white"/>
<path d="M59.848 337.977C59.8198 337.977 59.7904 337.976 59.7622 337.973C59.6045 337.962 59.4505 337.92 59.3091 337.849C59.1677 337.779 59.0416 337.681 58.9379 337.562C58.8343 337.442 58.7552 337.304 58.7052 337.154C58.6551 337.004 58.6351 336.845 58.6462 336.688L71.6543 152.957C71.6635 152.799 71.7044 152.644 71.7744 152.502C71.8444 152.359 71.9421 152.232 72.0619 152.128C72.1816 152.024 72.321 151.945 72.4717 151.896C72.6224 151.847 72.7815 151.828 72.9395 151.841C73.0972 151.852 73.2512 151.894 73.3926 151.965C73.534 152.035 73.6601 152.133 73.7638 152.253C73.8674 152.372 73.9465 152.511 73.9965 152.661C74.0466 152.811 74.0666 152.969 74.0555 153.127L61.0475 336.857C61.0263 337.161 60.8907 337.445 60.6681 337.653C60.4456 337.861 60.1525 337.977 59.848 337.977Z" fill="white"/>
<path d="M74.2977 334.363C74.2695 334.363 74.2401 334.362 74.2119 334.36C74.0542 334.349 73.9002 334.307 73.7588 334.236C73.6174 334.165 73.4913 334.067 73.3876 333.948C73.284 333.829 73.2049 333.69 73.1548 333.54C73.1048 333.39 73.0848 333.232 73.0959 333.074L86.1039 149.344C86.1132 149.185 86.1541 149.03 86.2241 148.888C86.2941 148.746 86.3918 148.619 86.5116 148.515C86.6313 148.411 86.7707 148.332 86.9214 148.282C87.0721 148.233 87.2312 148.214 87.3892 148.227C87.5469 148.239 87.7008 148.281 87.8423 148.351C87.9837 148.422 88.1098 148.52 88.2135 148.639C88.3171 148.758 88.3962 148.897 88.4462 149.047C88.4963 149.197 88.5163 149.355 88.5052 149.513L75.4972 333.243C75.476 333.547 75.3404 333.832 75.1179 334.04C74.8953 334.247 74.6022 334.363 74.2977 334.363Z" fill="white"/>
<path d="M88.7475 327.136C88.7193 327.136 88.6899 327.135 88.6616 327.133C88.5039 327.122 88.35 327.079 88.2085 327.009C88.0671 326.938 87.941 326.84 87.8374 326.721C87.7337 326.602 87.6547 326.463 87.6046 326.313C87.5545 326.163 87.5345 326.005 87.5457 325.847L100.554 142.117C100.563 141.958 100.604 141.803 100.674 141.661C100.744 141.519 100.842 141.392 100.961 141.288C101.081 141.184 101.22 141.105 101.371 141.055C101.522 141.006 101.681 140.987 101.839 141C101.997 141.011 102.151 141.054 102.292 141.124C102.433 141.195 102.56 141.293 102.663 141.412C102.767 141.531 102.846 141.67 102.896 141.82C102.946 141.97 102.966 142.128 102.955 142.286L89.9469 326.016C89.9257 326.32 89.7902 326.605 89.5676 326.812C89.345 327.02 89.052 327.136 88.7475 327.136Z" fill="white"/>
<path d="M458.417 346.408C458.445 346.408 458.475 346.407 458.503 346.405C458.661 346.394 458.815 346.352 458.956 346.281C459.097 346.21 459.224 346.113 459.327 345.993C459.431 345.874 459.51 345.735 459.56 345.585C459.61 345.435 459.63 345.277 459.619 345.119L446.611 161.389C446.602 161.231 446.561 161.076 446.491 160.933C446.421 160.791 446.323 160.664 446.203 160.56C446.083 160.456 445.944 160.377 445.793 160.328C445.643 160.278 445.484 160.26 445.326 160.273C445.168 160.284 445.014 160.326 444.873 160.396C444.731 160.467 444.605 160.565 444.501 160.684C444.398 160.804 444.319 160.942 444.269 161.092C444.218 161.242 444.198 161.401 444.21 161.558L457.218 345.289C457.239 345.592 457.374 345.877 457.597 346.085C457.82 346.293 458.113 346.408 458.417 346.408Z" fill="white"/>
<path d="M442.763 335.568C442.791 335.568 442.821 335.566 442.849 335.564C443.007 335.553 443.161 335.511 443.302 335.44C443.444 335.37 443.57 335.272 443.673 335.152C443.777 335.033 443.856 334.894 443.906 334.744C443.956 334.594 443.976 334.436 443.965 334.278L430.957 150.548C430.948 150.39 430.907 150.235 430.837 150.092C430.767 149.95 430.669 149.823 430.549 149.719C430.43 149.615 430.29 149.536 430.14 149.487C429.989 149.437 429.83 149.419 429.672 149.432C429.514 149.443 429.36 149.485 429.219 149.556C429.077 149.626 428.951 149.724 428.848 149.843C428.744 149.963 428.665 150.101 428.615 150.251C428.565 150.401 428.545 150.56 428.556 150.717L441.564 334.448C441.585 334.752 441.721 335.036 441.943 335.244C442.166 335.452 442.459 335.567 442.763 335.568Z" fill="white"/>
<path d="M428.314 323.523C428.342 323.523 428.371 323.521 428.399 323.519C428.557 323.508 428.711 323.466 428.852 323.395C428.994 323.325 429.12 323.227 429.224 323.108C429.327 322.988 429.406 322.85 429.456 322.7C429.506 322.55 429.526 322.391 429.515 322.233L416.507 138.503C416.498 138.345 416.457 138.19 416.387 138.048C416.317 137.905 416.219 137.778 416.1 137.674C415.98 137.57 415.841 137.491 415.69 137.442C415.539 137.393 415.38 137.374 415.222 137.387C415.064 137.398 414.91 137.44 414.769 137.511C414.628 137.581 414.501 137.679 414.398 137.798C414.294 137.918 414.215 138.056 414.165 138.206C414.115 138.356 414.095 138.515 414.106 138.673L427.114 322.403C427.135 322.707 427.271 322.991 427.493 323.199C427.716 323.407 428.009 323.522 428.314 323.523Z" fill="white"/>
<path d="M132.805 159.829C159.947 151.167 190.228 153.46 215.942 165.663C223.279 169.127 230.208 173.396 236.602 178.392C238.41 179.812 240.984 177.272 239.156 175.837C215.538 157.513 185.864 148.808 156.093 151.471C147.857 152.209 139.726 153.843 131.845 156.345C129.638 157.049 130.581 160.539 132.805 159.829Z" fill="#3F3D56"/>
<path d="M282.16 179.793C307.396 166.525 337.614 163.632 365.052 171.164C372.874 173.306 380.434 176.312 387.591 180.128C389.641 181.222 391.468 178.104 389.414 177.008C363.264 163.05 331.873 159.837 303.317 167.617C295.351 169.792 287.645 172.828 280.337 176.673C278.278 177.756 280.102 180.876 282.16 179.793Z" fill="#3F3D56"/>
<path d="M282.16 203.884C307.396 190.616 337.614 187.722 365.052 195.254C372.874 197.396 380.434 200.403 387.591 204.218C389.641 205.313 391.468 202.194 389.414 201.098C363.264 187.14 331.873 183.927 303.317 191.708C295.351 193.882 287.645 196.919 280.337 200.764C278.278 201.846 280.102 204.966 282.16 203.884Z" fill="#3F3D56"/>
<path d="M390.298 226.682C390.317 226.372 390.242 226.063 390.083 225.796C389.925 225.529 389.689 225.315 389.408 225.184C368.459 214.211 344.707 209.761 321.208 212.405C321.061 212.417 320.925 212.441 320.766 212.453H320.76C320.615 212.466 320.472 212.487 320.33 212.518C306.353 214.126 292.795 218.307 280.338 224.848C280.066 225.01 279.841 225.239 279.685 225.514C279.529 225.789 279.447 226.1 279.448 226.416V271.356C279.452 271.633 279.519 271.905 279.644 272.151C279.769 272.398 279.949 272.613 280.169 272.78C280.39 272.947 280.645 273.062 280.916 273.115C281.188 273.169 281.468 273.16 281.735 273.09C282.289 272.931 282.843 272.777 283.409 272.63C296.002 269.22 308.93 267.197 321.963 266.597C322.24 266.586 322.517 266.574 322.806 266.562C333.42 266.106 344.055 266.488 354.609 267.706C354.83 267.718 355.051 267.742 355.27 267.777C355.812 267.836 356.366 267.901 356.908 267.971C357.127 267.995 357.333 268.019 357.533 268.054C359.644 268.319 361.736 268.62 363.835 268.944C366.865 269.428 369.895 269.966 372.925 270.56C373.114 270.595 373.308 270.643 373.503 270.678C378.366 271.645 383.206 272.765 388.022 274.004C388.291 274.073 388.571 274.08 388.843 274.026C389.114 273.971 389.369 273.855 389.59 273.687C389.81 273.519 389.989 273.303 390.114 273.055C390.239 272.808 390.306 272.535 390.31 272.258V226.752C390.312 226.728 390.307 226.704 390.298 226.682Z" fill="#3F3D56"/>
<path d="M324.04 214.856C322.717 214.207 321.2 214.074 319.784 214.482C319.158 214.716 318.585 215.073 318.099 215.531C317.612 215.989 317.221 216.539 316.949 217.149C316.458 218.319 316.143 219.555 316.015 220.818C315.941 221.314 315.936 221.941 316.435 222.172C316.616 222.238 316.811 222.253 317 222.216C317.189 222.178 317.365 222.09 317.507 221.96C317.765 221.706 317.977 221.41 318.135 221.084C319.001 219.736 320.193 218.628 321.601 217.862C323.009 217.096 324.587 216.698 326.189 216.704L327.523 217.235C326.473 216.29 325.302 215.49 324.04 214.856Z" fill="#FF6582"/>
<path d="M338.474 225.214C337.439 223.69 336.213 222.062 334.292 221.565C332.068 220.988 329.783 222.133 327.845 223.263C322.082 226.62 316.501 230.282 311.126 234.231L311.132 234.29L323.608 233.524C326.613 233.34 329.72 233.13 332.376 231.864C333.329 231.266 334.395 230.87 335.507 230.698C336.197 230.735 336.873 230.909 337.496 231.209C338.118 231.509 338.675 231.93 339.135 232.446C344.884 237.898 346.548 246.234 352.999 251.024C348.894 242.026 344.035 233.392 338.474 225.214Z" fill="white"/>
<path d="M322.808 266.561C322.519 266.573 322.242 266.585 321.965 266.597C319.954 265.875 317.895 265.236 315.812 264.682C314.463 264.321 313.09 263.996 311.717 263.719C310.164 263.381 308.599 263.116 307.033 262.887C304.053 262.454 301.049 262.2 298.039 262.129C298.016 262.131 297.993 262.129 297.971 262.122C297.949 262.115 297.929 262.103 297.912 262.088C297.895 262.072 297.881 262.054 297.872 262.033C297.862 262.012 297.857 261.989 297.857 261.966C297.857 261.943 297.862 261.92 297.872 261.899C297.881 261.878 297.895 261.86 297.912 261.844C297.929 261.829 297.949 261.817 297.971 261.81C297.993 261.803 298.016 261.801 298.039 261.803C298.424 261.803 298.809 261.815 299.182 261.84C302.2 261.951 305.208 262.245 308.189 262.719C309.743 262.972 311.296 263.273 312.838 263.61C314.234 263.923 315.631 264.273 317.004 264.658C318.966 265.212 320.901 265.846 322.808 266.561Z" fill="white"/>
<path d="M357.535 268.055C357.331 268.019 357.126 267.994 356.909 267.971C356.078 267.284 355.235 266.634 354.356 265.995C353.26 265.2 352.129 264.453 350.973 263.755C348.413 262.2 345.74 260.839 342.977 259.683C338.609 257.864 334.088 256.437 329.466 255.419C324.195 254.264 318.859 253.428 313.488 252.914C308.117 252.36 302.723 252.023 297.328 251.686C297.099 251.673 297.087 251.336 297.328 251.348C298.002 251.396 298.677 251.432 299.363 251.481C304.818 251.818 310.273 252.204 315.691 252.818C321.064 253.394 326.394 254.319 331.646 255.588C336.13 256.693 340.506 258.197 344.723 260.081C347.148 261.171 349.498 262.422 351.755 263.827C353.188 264.73 354.573 265.694 355.897 266.718C356.452 267.151 357.005 267.585 357.535 268.055Z" fill="white"/>
<path d="M355.271 267.778C355.052 267.743 354.831 267.718 354.609 267.706C354.356 267.501 354.091 267.308 353.827 267.115C351.973 265.788 350.038 264.577 348.035 263.49C346.215 262.5 344.346 261.604 342.435 260.804C338.069 258.979 333.547 257.552 328.925 256.54C323.653 255.385 318.317 254.548 312.946 254.035C307.575 253.48 302.181 253.143 296.786 252.806C296.558 252.782 296.558 252.457 296.786 252.469C297.473 252.517 298.147 252.553 298.821 252.601C304.276 252.938 309.731 253.324 315.149 253.938C320.522 254.514 325.852 255.44 331.104 256.709C335.589 257.812 339.965 259.315 344.181 261.201C345.771 261.924 347.324 262.707 348.841 263.562C351.091 264.798 353.241 266.207 355.271 267.778Z" fill="white"/>
<path d="M373.502 270.681C373.31 270.644 373.117 270.596 372.924 270.56C372.707 270.331 372.503 270.09 372.298 269.849C371.263 268.657 370.239 267.453 369.227 266.236C365.242 261.49 361.461 256.6 357.896 251.613C354.838 247.349 351.936 243.001 349.19 238.568C347.878 236.472 346.613 234.353 345.373 232.208C344.41 230.546 343.471 228.88 342.556 227.21C342.291 226.728 342.038 226.246 341.785 225.764C341.195 224.632 340.605 223.488 339.979 222.368C339.298 220.995 338.299 219.806 337.065 218.899C336.448 218.486 335.734 218.241 334.994 218.188C333.949 218.192 332.923 218.457 332.007 218.959C325.271 222.097 318.915 225.997 313.066 230.582C307.353 235.027 302.188 240.134 297.677 245.795C297.533 245.964 297.219 245.807 297.352 245.627C297.894 244.952 298.448 244.278 299.002 243.615C303.337 238.486 308.218 233.845 313.56 229.775C313.572 229.763 313.596 229.751 313.608 229.739C314.078 229.366 314.547 229.005 315.029 228.655C318.011 226.459 321.115 224.432 324.325 222.585C325.963 221.633 327.636 220.729 329.346 219.874C329.768 219.658 330.201 219.441 330.634 219.236C331.068 219.019 331.502 218.815 331.935 218.61C332.793 218.172 333.731 217.914 334.693 217.851C338.04 217.803 339.762 221.175 340.954 223.452C341.327 224.162 341.713 224.873 342.086 225.584C343.531 228.27 345.036 230.944 346.602 233.582C347.553 235.22 348.54 236.846 349.54 238.46C350.973 240.761 352.442 243.037 353.971 245.302L353.972 245.306L353.974 245.31L353.978 245.313L353.983 245.314C355.753 247.988 357.595 250.614 359.498 253.227C362.761 257.696 366.181 262.064 369.757 266.332C370.986 267.802 372.234 269.251 373.502 270.681Z" fill="white"/>
<path d="M390.312 265.369V265.923C389.12 264.526 387.904 263.14 386.699 261.755C386.194 261.177 385.688 260.599 385.182 260.021C383.039 257.588 380.883 255.162 378.716 252.745C376.537 250.336 374.357 247.927 372.153 245.53C371.624 244.952 371.094 244.374 370.552 243.796C370.118 243.31 369.647 242.859 369.143 242.447C368.634 242.023 368.05 241.701 367.421 241.495C366.697 241.295 365.934 241.286 365.206 241.471C364.375 241.664 363.58 241.965 362.773 242.218C361.942 242.495 361.123 242.76 360.293 243.025C358.631 243.567 356.981 244.109 355.319 244.651C355.299 244.659 355.277 244.664 355.255 244.663C355.233 244.663 355.211 244.658 355.191 244.649C355.17 244.64 355.152 244.627 355.137 244.611C355.122 244.595 355.11 244.575 355.103 244.555C355.093 244.532 355.089 244.507 355.09 244.483C355.091 244.458 355.098 244.434 355.109 244.412C355.121 244.39 355.137 244.371 355.157 244.356C355.176 244.341 355.199 244.331 355.223 244.326C355.633 244.193 356.054 244.061 356.476 243.928C358.149 243.374 359.811 242.832 361.485 242.29C362.316 242.013 363.146 241.748 363.977 241.483C364.748 241.191 365.562 241.028 366.386 241.001C367.731 241.098 368.992 241.69 369.926 242.664C370.444 243.146 370.913 243.651 371.383 244.169C371.937 244.772 372.491 245.374 373.045 245.976C375.272 248.409 377.484 250.85 379.679 253.299C381.883 255.757 384.066 258.218 386.23 260.683C386.386 260.864 386.543 261.045 386.699 261.225C387.916 262.598 389.108 263.984 390.312 265.369Z" fill="white"/>
<path d="M330.542 217.484L330.209 217.629C329.446 216.341 328.377 215.26 327.096 214.485C325.815 213.709 324.362 213.262 322.867 213.183C317.937 212.833 313.607 216.119 313.213 220.508C313.053 222.316 313.576 224.117 314.679 225.558L314.37 225.741C313.221 224.24 312.676 222.364 312.843 220.482C313.253 215.911 317.763 212.489 322.896 212.854C324.454 212.936 325.966 213.401 327.3 214.209C328.634 215.017 329.747 216.142 330.542 217.484Z" fill="#FF6582"/>
<path d="M306.182 226.364C304.888 225.801 303.479 225.554 302.071 225.644C300.663 225.734 299.297 226.157 298.085 226.88C302.509 227.559 306.896 228.47 311.225 229.61C309.432 228.675 308.03 227.21 306.182 226.364Z" fill="white"/>
<path d="M298.06 226.876L297.573 227.228C297.737 227.105 297.909 226.989 298.085 226.88L298.06 226.876Z" fill="white"/>
<path d="M368.956 244.666C368.501 244.08 367.895 243.629 367.203 243.363L366.518 243.387C371.892 251.752 378.933 258.919 387.201 264.44C381.119 257.849 375.038 251.257 368.956 244.666Z" fill="white"/>
<path d="M312.732 228.921C312.538 228.728 312.345 228.535 312.15 228.343C310.651 226.711 308.846 225.39 306.838 224.454C305.815 224.023 304.718 223.797 303.609 223.788C302.463 223.815 301.329 224.035 300.256 224.439C299.751 224.618 299.258 224.822 298.772 225.039C298.216 225.288 297.671 225.553 297.128 225.821C296.108 226.323 295.102 226.848 294.109 227.394C292.133 228.481 290.22 229.651 288.368 230.905C287.408 231.554 286.467 232.226 285.547 232.918C284.691 233.561 283.852 234.222 283.031 234.9C282.855 235.044 282.593 234.811 282.768 234.666C282.985 234.487 283.204 234.308 283.423 234.132C284.041 233.634 284.67 233.146 285.308 232.667C286.472 231.792 287.667 230.952 288.891 230.145C290.795 228.889 292.764 227.718 294.799 226.633C295.816 226.091 296.847 225.572 297.892 225.075C298.208 224.926 298.527 224.779 298.85 224.64C299.587 224.31 300.348 224.034 301.126 223.815C302.242 223.495 303.409 223.393 304.564 223.515C305.669 223.656 306.742 223.986 307.736 224.492C309.705 225.595 311.481 227.012 312.995 228.686C313.153 228.845 312.892 229.079 312.732 228.921Z" fill="white"/>
<path d="M132.805 183.919C159.947 175.257 190.228 177.55 215.942 189.754C223.279 193.217 230.208 197.486 236.602 202.482C238.41 203.902 240.984 201.362 239.156 199.927C215.538 181.603 185.864 172.898 156.093 175.561C147.857 176.299 139.726 177.933 131.845 180.435C129.638 181.139 130.581 184.629 132.805 183.919Z" fill="#3F3D56"/>
<path d="M132.805 208.009C159.947 199.347 190.228 201.64 215.942 213.844C223.279 217.308 230.208 221.577 236.602 226.572C238.41 227.992 240.984 225.452 239.156 224.017C215.538 205.693 185.864 196.988 156.093 199.652C147.857 200.389 139.726 202.023 131.845 204.525C129.638 205.229 130.581 208.719 132.805 208.009Z" fill="#3F3D56"/>
<path d="M132.805 232.1C159.947 223.437 190.228 225.73 215.942 237.934C223.279 241.398 230.208 245.667 236.602 250.662C238.41 252.082 240.984 249.542 239.156 248.107C215.538 229.783 185.864 221.078 156.093 223.742C147.857 224.479 139.726 226.113 131.845 228.615C129.638 229.319 130.581 232.809 132.805 232.1Z" fill="#3F3D56"/>
<path d="M132.805 256.19C159.947 247.527 190.228 249.821 215.942 262.024C223.279 265.488 230.208 269.757 236.602 274.753C238.41 276.173 240.984 273.633 239.156 272.198C215.538 253.873 185.864 245.169 156.093 247.832C147.857 248.569 139.726 250.203 131.845 252.705C129.638 253.409 130.581 256.9 132.805 256.19Z" fill="#3F3D56"/>
<path d="M132.805 280.28C159.947 271.618 190.228 273.911 215.942 286.114C223.279 289.578 230.208 293.847 236.602 298.843C238.41 300.263 240.984 297.723 239.156 296.288C215.538 277.964 185.864 269.259 156.093 271.922C147.857 272.66 139.726 274.294 131.845 276.795C129.638 277.5 130.581 280.99 132.805 280.28Z" fill="#3F3D56"/>
<path d="M230.595 121.069V188.588C230.595 189.738 228.591 190.699 225.885 190.959C225.414 191.006 224.918 191.029 224.406 191.029C222.916 191.058 221.434 190.816 220.031 190.316C219.771 190.215 219.519 190.095 219.277 189.956C218.605 189.561 218.216 189.095 218.216 188.588V115.862C220.421 116.599 222.478 117.372 224.406 118.174C226.646 119.106 228.703 120.073 230.595 121.069Z" fill="#FDBB22"/>
<path d="M256.54 144.22H254.772V362.627H256.54V144.22Z" fill="#E6E6E6"/>
<path d="M414.374 320.225C412.551 322.124 410.348 323.616 407.909 324.605C405.47 325.594 402.85 326.058 400.22 325.965C392.041 325.676 382.282 325.532 371.689 325.753L371.629 325.702L417.537 266.174L419.518 305.862C419.716 308.483 419.361 311.117 418.474 313.591C417.588 316.066 416.191 318.326 414.374 320.225Z" fill="#F2F2F2"/>
<path d="M300.091 528.275L297.642 548.157L295.772 563.269L295.024 569.366H284.38V563.949L284.372 546.023V528.275H300.091Z" fill="#FFB6B6"/>
<path d="M225.874 526.191L222.856 535.512L220.433 542.987L220.016 544.271L218.358 549.382L214.856 560.19L213.113 565.573L203.43 563.702L202.656 563.558L203.286 560.309L203.668 558.328L207.902 536.37L208.59 532.833L208.701 532.263L209.015 530.622L210.444 523.215L220.764 525.205L221.955 525.434L225.874 526.191Z" fill="#FFB6B6"/>
<path d="M316.081 409.874C309.994 443.337 308.473 457.786 308.473 457.786C308.473 457.786 313.038 463.109 309.994 466.153C306.951 469.198 309.994 475.278 309.994 475.278L303.151 549.05L297.642 548.157L284.371 546.023L279.585 545.249L282.629 476.043C282.629 476.043 279.585 469.955 281.107 468.432C282.629 466.91 279.585 457.785 279.585 457.785L275.785 385.536L252.211 464.631C252.211 464.631 254.497 467.676 252.211 469.955C249.932 472.234 245.376 483.646 245.376 483.646L231.357 532.714L230.167 536.881L222.855 535.512L214.898 534.015L213.436 533.743L210.835 533.25L209.16 532.935L208.59 532.833L205.836 532.314L206.669 528.615L207.102 526.668L218.962 473.977L219.234 472.761L219.523 471.477C219.523 471.477 218.001 467.676 220.28 465.388C220.946 464.691 221.433 463.842 221.698 462.914C221.963 461.987 221.999 461.009 221.801 460.065C221.727 459.985 221.658 459.9 221.597 459.809C221.328 459.44 221.143 459.016 221.053 458.568C220.849 457.615 221.028 456.28 222.566 454.741C223 454.281 223.363 453.759 223.646 453.193C225.958 448.814 227.123 439.536 227.123 439.536C227.123 439.536 229.18 366.053 235.914 354.828C236.18 354.338 236.555 353.916 237.01 353.595C244.61 349.037 317.595 353.595 317.595 353.595C317.595 353.595 317.697 354.122 317.858 355.126C318.734 360.764 321.242 381.488 316.081 409.874Z" fill="#2F2E41"/>
<path d="M313.689 274.875L315.821 262.033L355.066 268.639L410.746 272.624C411.954 271.287 413.562 270.376 415.329 270.027C417.097 269.678 418.93 269.909 420.556 270.686C422.182 271.463 423.513 272.744 424.352 274.34C425.191 275.935 425.492 277.758 425.211 279.538C424.93 281.319 424.082 282.961 422.793 284.22C421.503 285.479 419.842 286.288 418.056 286.526C416.27 286.765 414.455 286.42 412.881 285.543C411.307 284.666 410.058 283.304 409.32 281.659L375.17 283.958L313.689 274.875Z" fill="#FFB6B6"/>
<path d="M284.354 265.986L287.125 254.522C287.125 254.522 302.173 251.751 314.069 254.402L358.825 262.994L355.202 290.056L284.354 265.986Z" fill="#FDBB22"/>
<path d="M180.473 360.385L205.512 305.973L223.785 267.476L239.633 276.806L190.299 366.372C190.732 367.969 190.682 369.658 190.156 371.227C189.629 372.795 188.649 374.172 187.34 375.184C186.031 376.195 184.452 376.796 182.802 376.909C181.151 377.023 179.505 376.644 178.07 375.822C176.634 374.999 175.475 373.769 174.739 372.288C174.003 370.806 173.722 369.139 173.933 367.498C174.143 365.857 174.836 364.315 175.922 363.068C177.009 361.821 178.441 360.923 180.037 360.49C180.182 360.451 180.327 360.416 180.473 360.385Z" fill="#FFB6B6"/>
<path d="M252.686 250.982L240.532 245.404C240.532 245.404 238.377 244.656 233.73 251.092C229.083 257.529 189.106 318.266 189.106 318.266L214.492 329.744L252.686 250.982Z" fill="#FDBB22"/>
<path d="M313.846 581.203L298.025 570.267V563.133L295.772 563.269L284.38 563.949L281.379 564.128L279.305 588.976L279.279 589.325H286.752L286.82 588.976L288.086 582.266L291.326 588.976L291.496 589.325H311.321C311.916 589.323 312.505 589.205 313.055 588.976C313.791 588.665 314.429 588.162 314.904 587.52C315.379 586.877 315.672 586.119 315.753 585.324C315.833 584.529 315.699 583.727 315.364 583.002C315.028 582.278 314.504 581.656 313.846 581.203Z" fill="#2F2E41"/>
<path d="M229.461 581.858L222.566 574.341L217.755 569.085L216.964 568.218L216.845 568.09L216.462 567.674L218.052 560.717L214.856 560.19L203.668 558.328L203.064 558.234L201.874 558.03L201.602 557.988L197.785 570.021L194.325 580.897L193.951 582.088L198.55 583.134L201.236 583.746L202.563 580.702L202.707 580.379L203.574 578.38V578.372L204.11 577.164L205.87 584.801L206.176 584.869L206.218 584.877L207.298 585.124L209.406 585.608L224.148 588.976L225.193 589.214C226.345 589.471 227.552 589.262 228.55 588.632C229.548 588.003 230.258 587.005 230.524 585.855C230.684 585.153 230.671 584.422 230.486 583.725C230.3 583.029 229.949 582.388 229.461 581.858Z" fill="#2F2E41"/>
<path d="M297.693 215.898C295.974 219.054 293.587 221.797 290.698 223.935C287.81 226.074 284.491 227.556 280.971 228.279C280.58 228.364 280.189 228.432 279.789 228.492C274.266 229.356 268.613 228.324 263.751 225.566C258.888 222.808 255.102 218.484 253.008 213.3C250.914 208.115 250.635 202.374 252.217 197.011C253.8 191.648 257.149 186.978 261.722 183.762C266.295 180.545 271.821 178.971 277.401 179.296C282.982 179.62 288.289 181.824 292.458 185.549C296.627 189.274 299.414 194.3 300.364 199.81C301.315 205.321 300.373 210.991 297.693 215.898Z" fill="#FFB6B6"/>
<path d="M287.848 182.281C279.747 176.708 272.612 175.859 266.752 177.44C265.992 176.264 264.927 175.318 263.67 174.702C259.099 163.182 245.189 156.263 233.252 159.626C221.238 163.012 212.948 176.324 215.209 188.603C216.61 196.214 221.398 202.805 223.325 210.301C227.053 224.811 217.958 241.432 203.729 246.11C217.201 248.816 232.03 240.584 236.863 227.717C239.211 221.468 239.352 214.644 239.651 207.975C239.729 203.371 240.293 198.789 241.333 194.304C241.849 192.291 242.578 190.34 243.508 188.482C245.533 184.399 248.897 181.135 253.038 179.233C252.667 180.381 252.575 181.6 252.768 182.79C252.961 183.98 253.434 185.107 254.148 186.078C250.989 190.037 249.269 194.319 249.269 196.883C242.706 208.882 252.091 219.189 264.087 225.754C268.872 228.386 274.396 229.349 279.789 228.492L280.291 226.349L280.971 228.279L283.24 234.751C285.859 236.018 288.455 237.407 291.028 238.918C290.05 234.326 289.26 229.742 288.715 225.261C287.962 219.161 290.588 210.08 292.483 204.558C293.658 201.154 294.26 197.579 294.267 193.979V193.821L296.112 199.749L302.828 196.883C301.578 189.714 302.828 181.576 287.848 182.281Z" fill="#2F2E41"/>
<path d="M236.247 346.751C237.13 343.257 237.13 339.598 236.247 336.104C234.727 330.781 237.768 328.499 237.768 328.499L238.528 246.364C241.74 243.151 250.346 243.099 255.161 243.349V239.732C255.161 238.4 255.69 237.122 256.631 236.18C257.573 235.239 258.85 234.709 260.181 234.709H282.445C283.777 234.709 285.054 235.239 285.995 236.18C286.937 237.122 287.466 238.4 287.466 239.732V244.067L293.996 244.17C305.367 245.017 315.316 256.251 315.316 256.251L305.433 294.276C305.433 294.276 308.474 325.457 312.275 329.26C316.077 333.062 314.556 335.344 314.556 335.344C314.556 335.344 312.275 343.709 316.837 346.751C321.399 349.794 318.358 355.117 318.358 355.117C318.358 355.117 236.247 356.638 233.967 354.357C231.686 352.075 236.247 346.751 236.247 346.751Z" fill="#FDBB22"/>
<path d="M387.535 589.988C387.536 590.121 387.51 590.253 387.459 590.376C387.409 590.499 387.334 590.61 387.24 590.705C387.146 590.799 387.034 590.873 386.911 590.924C386.788 590.975 386.657 591 386.524 591H148.239C147.971 591 147.713 590.893 147.524 590.704C147.334 590.514 147.227 590.256 147.227 589.988C147.227 589.72 147.334 589.462 147.524 589.273C147.713 589.083 147.971 588.976 148.239 588.976H386.524C386.657 588.976 386.788 589.002 386.911 589.052C387.034 589.103 387.146 589.178 387.24 589.272C387.334 589.366 387.409 589.477 387.459 589.6C387.51 589.723 387.536 589.855 387.535 589.988Z" fill="#CCCCCC"/>
</g>
<defs>
<clipPath id="clip0_3168_5381">
<rect width="500" height="591" fill="white"/>
</clipPath>
</defs>
</svg>
