<svg xmlns="http://www.w3.org/2000/svg" width="24" height="22" viewBox="0 0 24 22" fill="none">
<path d="M4.48847 13.9965C4.48847 14.3938 4.64675 14.775 4.92848 15.0559C5.21022 15.3369 5.59233 15.4947 5.99077 15.4947C6.38921 15.4947 6.77133 15.3369 7.05307 15.0559C7.3348 14.775 7.49308 14.3938 7.49308 13.9965V5.6273L9.43556 7.56454C9.7189 7.83746 10.0984 7.98846 10.4923 7.98505C10.8862 7.98165 11.263 7.82408 11.5415 7.54629C11.8201 7.2685 11.9781 6.89272 11.9815 6.49988C11.9849 6.10706 11.8335 5.72858 11.5598 5.44601L7.0529 0.951275C6.77118 0.670399 6.38912 0.512604 5.99077 0.512604C5.59241 0.512604 5.21037 0.670399 4.92864 0.951275L0.421724 5.44601C0.148064 5.72858 -0.00335386 6.10706 5.63789e-05 6.49988C0.00348164 6.89272 0.161479 7.2685 0.440022 7.54629C0.718564 7.82408 1.09536 7.98165 1.48926 7.98505C1.88315 7.98846 2.26265 7.83746 2.54598 7.56454L4.48847 5.6273V13.9965ZM19.5115 8.00352C19.5115 7.60616 19.3533 7.22508 19.0715 6.9441C18.7898 6.66313 18.4076 6.50527 18.0092 6.50527C17.6108 6.50527 17.2286 6.66313 16.9469 6.9441C16.6652 7.22508 16.5069 7.60616 16.5069 8.00352V16.3727L14.5644 14.4354C14.2811 14.1626 13.9016 14.0116 13.5077 14.015C13.1138 14.0183 12.737 14.176 12.4585 14.4537C12.1799 14.7315 12.0219 15.1073 12.0184 15.5001C12.0151 15.8929 12.1666 16.2714 12.4401 16.554L16.9471 21.0487C17.2287 21.3296 17.6109 21.4874 18.0092 21.4874C18.4076 21.4874 18.7896 21.3296 19.0713 21.0487L23.5782 16.554C23.852 16.2714 24.0034 15.8929 23.9999 15.5001C23.9965 15.1073 23.8384 14.7315 23.5599 14.4537C23.2814 14.176 22.9046 14.0183 22.5107 14.015C22.1168 14.0116 21.7373 14.1626 21.454 14.4354L19.5115 16.3727V8.00352Z" fill="#FFF8E9"/>
</svg>