<svg width="64" height="22" viewBox="0 0 64 22" fill="none" xmlns="http://www.w3.org/2000/svg">
<path d="M1.01136 17V5.36364H8.85227V7.39205H3.47159V10.1648H8.44886V12.1932H3.47159V14.9716H8.875V17H1.01136ZM13.9787 17.142C13.3158 17.142 12.7154 16.9716 12.1776 16.6307C11.6435 16.286 11.2192 15.7803 10.9048 15.1136C10.5942 14.4432 10.4389 13.6212 10.4389 12.6477C10.4389 11.6477 10.5999 10.8163 10.9219 10.1534C11.2438 9.48674 11.6719 8.98864 12.206 8.65909C12.7438 8.32576 13.3329 8.15909 13.973 8.15909C14.4616 8.15909 14.8688 8.24242 15.1946 8.40909C15.5241 8.57197 15.7893 8.77652 15.9901 9.02273C16.1946 9.26515 16.3499 9.50379 16.456 9.73864H16.5298V5.36364H18.9446V17H16.5582V15.6023H16.456C16.3423 15.8447 16.1813 16.0852 15.973 16.3239C15.7685 16.5587 15.5014 16.7538 15.1719 16.9091C14.8461 17.0644 14.4484 17.142 13.9787 17.142ZM14.7457 15.2159C15.1359 15.2159 15.4654 15.1098 15.7344 14.8977C16.0071 14.6818 16.2154 14.3807 16.3594 13.9943C16.5071 13.608 16.581 13.1553 16.581 12.6364C16.581 12.1174 16.509 11.6667 16.3651 11.2841C16.2211 10.9015 16.0128 10.6061 15.7401 10.3977C15.4673 10.1894 15.1359 10.0852 14.7457 10.0852C14.348 10.0852 14.0128 10.1932 13.7401 10.4091C13.4673 10.625 13.2609 10.9242 13.1207 11.3068C12.9806 11.6894 12.9105 12.1326 12.9105 12.6364C12.9105 13.1439 12.9806 13.5928 13.1207 13.983C13.2647 14.3693 13.4711 14.6723 13.7401 14.892C14.0128 15.108 14.348 15.2159 14.7457 15.2159ZM20.9347 17V8.27273H23.3551V17H20.9347ZM22.1506 7.14773C21.7907 7.14773 21.482 7.02841 21.2244 6.78977C20.9706 6.54735 20.8438 6.25758 20.8438 5.92045C20.8438 5.58712 20.9706 5.30114 21.2244 5.0625C21.482 4.82008 21.7907 4.69886 22.1506 4.69886C22.5104 4.69886 22.8172 4.82008 23.071 5.0625C23.3286 5.30114 23.4574 5.58712 23.4574 5.92045C23.4574 6.25758 23.3286 6.54735 23.071 6.78977C22.8172 7.02841 22.5104 7.14773 22.1506 7.14773ZM29.9361 8.27273V10.0909H24.6804V8.27273H29.9361ZM25.8736 6.18182H28.294V14.3182C28.294 14.5417 28.3281 14.7159 28.3963 14.8409C28.4645 14.9621 28.5592 15.0473 28.6804 15.0966C28.8054 15.1458 28.9493 15.1705 29.1122 15.1705C29.2259 15.1705 29.3395 15.161 29.4531 15.142C29.5668 15.1193 29.6539 15.1023 29.7145 15.0909L30.0952 16.892C29.974 16.9299 29.8035 16.9735 29.5838 17.0227C29.3641 17.0758 29.0971 17.108 28.7827 17.1193C28.1993 17.142 27.688 17.0644 27.2486 16.8864C26.813 16.7083 26.474 16.4318 26.2315 16.0568C25.9891 15.6818 25.8698 15.2083 25.8736 14.6364V6.18182ZM34.0014 17.1648C33.4446 17.1648 32.9484 17.0682 32.5128 16.875C32.0772 16.678 31.7325 16.3883 31.4787 16.0057C31.2287 15.6193 31.1037 15.1383 31.1037 14.5625C31.1037 14.0777 31.1927 13.6705 31.3707 13.3409C31.5488 13.0114 31.7912 12.7462 32.098 12.5455C32.4048 12.3447 32.7533 12.1932 33.1435 12.0909C33.5374 11.9886 33.9503 11.9167 34.3821 11.875C34.8897 11.822 35.2988 11.7727 35.6094 11.7273C35.92 11.678 36.1454 11.6061 36.2855 11.5114C36.4257 11.4167 36.4957 11.2765 36.4957 11.0909V11.0568C36.4957 10.697 36.3821 10.4186 36.1548 10.2216C35.9313 10.0246 35.6132 9.92614 35.2003 9.92614C34.7647 9.92614 34.4181 10.0227 34.1605 10.2159C33.9029 10.4053 33.7325 10.6439 33.6491 10.9318L31.4105 10.75C31.5241 10.2197 31.7476 9.76136 32.081 9.375C32.4143 8.98485 32.8442 8.68561 33.3707 8.47727C33.901 8.26515 34.5147 8.15909 35.2116 8.15909C35.6965 8.15909 36.1605 8.21591 36.6037 8.32955C37.0507 8.44318 37.4465 8.61932 37.7912 8.85795C38.1397 9.09659 38.4143 9.40341 38.6151 9.77841C38.8158 10.1496 38.9162 10.5947 38.9162 11.1136V17H36.6207V15.7898H36.5526C36.4124 16.0625 36.2249 16.303 35.9901 16.5114C35.7552 16.7159 35.473 16.8769 35.1435 16.9943C34.8139 17.108 34.4332 17.1648 34.0014 17.1648ZM34.6946 15.4943C35.0507 15.4943 35.3651 15.4242 35.6378 15.2841C35.9105 15.1402 36.1245 14.947 36.2798 14.7045C36.4351 14.4621 36.5128 14.1875 36.5128 13.8807V12.9545C36.437 13.0038 36.3329 13.0492 36.2003 13.0909C36.0715 13.1288 35.9257 13.1648 35.7628 13.1989C35.5999 13.2292 35.437 13.2576 35.2741 13.2841C35.1113 13.3068 34.9635 13.3277 34.831 13.3466C34.5469 13.3883 34.2988 13.4545 34.0866 13.5455C33.8745 13.6364 33.7098 13.7595 33.5923 13.9148C33.4749 14.0663 33.4162 14.2557 33.4162 14.483C33.4162 14.8125 33.5355 15.0644 33.7741 15.2386C34.0166 15.4091 34.3234 15.4943 34.6946 15.4943ZM40.794 17V8.27273H43.1406V9.79545H43.2315C43.3906 9.25379 43.6577 8.8447 44.0327 8.56818C44.4077 8.28788 44.8395 8.14773 45.3281 8.14773C45.4493 8.14773 45.58 8.1553 45.7202 8.17045C45.8603 8.18561 45.9834 8.20644 46.0895 8.23295V10.3807C45.9759 10.3466 45.8187 10.3163 45.6179 10.2898C45.4171 10.2633 45.2334 10.25 45.0668 10.25C44.7107 10.25 44.3925 10.3277 44.1122 10.483C43.8357 10.6345 43.616 10.8466 43.4531 11.1193C43.294 11.392 43.2145 11.7064 43.2145 12.0625V17H40.794Z" fill="#FDBB22"/>
<path d="M57 14.8929H51M54 5.70706C53.7348 5.44184 53.3751 5.29285 53 5.29285C52.8143 5.29285 52.6304 5.32943 52.4588 5.4005C52.2872 5.47157 52.1313 5.57574 52 5.70706C51.8687 5.83838 51.7645 5.99428 51.6934 6.16586C51.6224 6.33744 51.5858 6.52134 51.5858 6.70706C51.5858 6.89278 51.6224 7.07668 51.6934 7.24826C51.7645 7.41984 51.8687 7.57574 52 7.70706L60.3333 16.0404L63 16.7071L62.3333 14.0404L54 5.70706Z" stroke="#FDBB22" stroke-width="2" stroke-linecap="round" stroke-linejoin="round"/>
</svg>
