<svg width="67" height="22" viewBox="0 0 67 22" fill="none" xmlns="http://www.w3.org/2000/svg">
<path d="M8 16.3333H14" stroke="#FDBB22" stroke-width="1.06667" stroke-linecap="round" stroke-linejoin="round"/>
<path d="M11 7.14752C11.2652 6.8823 11.6249 6.73331 12 6.73331C12.1857 6.73331 12.3696 6.76989 12.5412 6.84096C12.7128 6.91203 12.8687 7.0162 13 7.14752C13.1313 7.27884 13.2355 7.43474 13.3066 7.60632C13.3776 7.7779 13.4142 7.9618 13.4142 8.14752C13.4142 8.33324 13.3776 8.51714 13.3066 8.68872C13.2355 8.8603 13.1313 9.0162 13 9.14752L4.66667 17.4809L2 18.1475L2.66667 15.4809L11 7.14752Z" stroke="#FDBB22" stroke-width="1.06667" stroke-linecap="round" stroke-linejoin="round"/>
<path d="M21.0114 17V5.36364H28.8523V7.39205H23.4716V10.1648H28.4489V12.1932H23.4716V14.9716H28.875V17H21.0114ZM33.9787 17.142C33.3158 17.142 32.7154 16.9716 32.1776 16.6307C31.6435 16.286 31.2192 15.7803 30.9048 15.1136C30.5942 14.4432 30.4389 13.6212 30.4389 12.6477C30.4389 11.6477 30.5999 10.8163 30.9219 10.1534C31.2438 9.48674 31.6719 8.98864 32.206 8.65909C32.7438 8.32576 33.3329 8.15909 33.973 8.15909C34.4616 8.15909 34.8688 8.24242 35.1946 8.40909C35.5241 8.57197 35.7893 8.77652 35.9901 9.02273C36.1946 9.26515 36.3499 9.50379 36.456 9.73864H36.5298V5.36364H38.9446V17H36.5582V15.6023H36.456C36.3423 15.8447 36.1813 16.0852 35.973 16.3239C35.7685 16.5587 35.5014 16.7538 35.1719 16.9091C34.8461 17.0644 34.4484 17.142 33.9787 17.142ZM34.7457 15.2159C35.1359 15.2159 35.4654 15.1098 35.7344 14.8977C36.0071 14.6818 36.2154 14.3807 36.3594 13.9943C36.5071 13.608 36.581 13.1553 36.581 12.6364C36.581 12.1174 36.509 11.6667 36.3651 11.2841C36.2211 10.9015 36.0128 10.6061 35.7401 10.3977C35.4673 10.1894 35.1359 10.0852 34.7457 10.0852C34.348 10.0852 34.0128 10.1932 33.7401 10.4091C33.4673 10.625 33.2609 10.9242 33.1207 11.3068C32.9806 11.6894 32.9105 12.1326 32.9105 12.6364C32.9105 13.1439 32.9806 13.5928 33.1207 13.983C33.2647 14.3693 33.4711 14.6723 33.7401 14.892C34.0128 15.108 34.348 15.2159 34.7457 15.2159ZM40.9347 17V8.27273H43.3551V17H40.9347ZM42.1506 7.14773C41.7907 7.14773 41.482 7.02841 41.2244 6.78977C40.9706 6.54735 40.8438 6.25758 40.8438 5.92045C40.8438 5.58712 40.9706 5.30114 41.2244 5.0625C41.482 4.82008 41.7907 4.69886 42.1506 4.69886C42.5104 4.69886 42.8172 4.82008 43.071 5.0625C43.3286 5.30114 43.4574 5.58712 43.4574 5.92045C43.4574 6.25758 43.3286 6.54735 43.071 6.78977C42.8172 7.02841 42.5104 7.14773 42.1506 7.14773ZM49.9361 8.27273V10.0909H44.6804V8.27273H49.9361ZM45.8736 6.18182H48.294V14.3182C48.294 14.5417 48.3281 14.7159 48.3963 14.8409C48.4645 14.9621 48.5592 15.0473 48.6804 15.0966C48.8054 15.1458 48.9493 15.1705 49.1122 15.1705C49.2259 15.1705 49.3395 15.161 49.4531 15.142C49.5668 15.1193 49.6539 15.1023 49.7145 15.0909L50.0952 16.892C49.974 16.9299 49.8035 16.9735 49.5838 17.0227C49.3641 17.0758 49.0971 17.108 48.7827 17.1193C48.1993 17.142 47.688 17.0644 47.2486 16.8864C46.813 16.7083 46.474 16.4318 46.2315 16.0568C45.9891 15.6818 45.8698 15.2083 45.8736 14.6364V6.18182ZM54.0014 17.1648C53.4446 17.1648 52.9484 17.0682 52.5128 16.875C52.0772 16.678 51.7325 16.3883 51.4787 16.0057C51.2287 15.6193 51.1037 15.1383 51.1037 14.5625C51.1037 14.0777 51.1927 13.6705 51.3707 13.3409C51.5488 13.0114 51.7912 12.7462 52.098 12.5455C52.4048 12.3447 52.7533 12.1932 53.1435 12.0909C53.5374 11.9886 53.9503 11.9167 54.3821 11.875C54.8897 11.822 55.2988 11.7727 55.6094 11.7273C55.92 11.678 56.1454 11.6061 56.2855 11.5114C56.4257 11.4167 56.4957 11.2765 56.4957 11.0909V11.0568C56.4957 10.697 56.3821 10.4186 56.1548 10.2216C55.9313 10.0246 55.6132 9.92614 55.2003 9.92614C54.7647 9.92614 54.4181 10.0227 54.1605 10.2159C53.9029 10.4053 53.7325 10.6439 53.6491 10.9318L51.4105 10.75C51.5241 10.2197 51.7476 9.76136 52.081 9.375C52.4143 8.98485 52.8442 8.68561 53.3707 8.47727C53.901 8.26515 54.5147 8.15909 55.2116 8.15909C55.6965 8.15909 56.1605 8.21591 56.6037 8.32955C57.0507 8.44318 57.4465 8.61932 57.7912 8.85795C58.1397 9.09659 58.4143 9.40341 58.6151 9.77841C58.8158 10.1496 58.9162 10.5947 58.9162 11.1136V17H56.6207V15.7898H56.5526C56.4124 16.0625 56.2249 16.303 55.9901 16.5114C55.7552 16.7159 55.473 16.8769 55.1435 16.9943C54.8139 17.108 54.4332 17.1648 54.0014 17.1648ZM54.6946 15.4943C55.0507 15.4943 55.3651 15.4242 55.6378 15.2841C55.9105 15.1402 56.1245 14.947 56.2798 14.7045C56.4351 14.4621 56.5128 14.1875 56.5128 13.8807V12.9545C56.437 13.0038 56.3329 13.0492 56.2003 13.0909C56.0715 13.1288 55.9257 13.1648 55.7628 13.1989C55.5999 13.2292 55.437 13.2576 55.2741 13.2841C55.1113 13.3068 54.9635 13.3277 54.831 13.3466C54.5469 13.3883 54.2988 13.4545 54.0866 13.5455C53.8745 13.6364 53.7098 13.7595 53.5923 13.9148C53.4749 14.0663 53.4162 14.2557 53.4162 14.483C53.4162 14.8125 53.5355 15.0644 53.7741 15.2386C54.0166 15.4091 54.3234 15.4943 54.6946 15.4943ZM60.794 17V8.27273H63.1406V9.79545H63.2315C63.3906 9.25379 63.6577 8.8447 64.0327 8.56818C64.4077 8.28788 64.8395 8.14773 65.3281 8.14773C65.4493 8.14773 65.58 8.1553 65.7202 8.17045C65.8603 8.18561 65.9834 8.20644 66.0895 8.23295V10.3807C65.9759 10.3466 65.8187 10.3163 65.6179 10.2898C65.4171 10.2633 65.2334 10.25 65.0668 10.25C64.7107 10.25 64.3925 10.3277 64.1122 10.483C63.8357 10.6345 63.616 10.8466 63.4531 11.1193C63.294 11.392 63.2145 11.7064 63.2145 12.0625V17H60.794Z" fill="#FDBB22"/>
</svg>
