<svg width="343" height="249" viewBox="0 0 343 249" fill="none" xmlns="http://www.w3.org/2000/svg">
<path d="M218.077 185.958V245.754H68.2668C51.198 245.754 37.3105 232.341 37.3105 215.856C37.3105 199.37 51.1979 185.958 68.2668 185.958H218.077Z" fill="#F2F2F2"/>
<path d="M221.756 245.294C221.756 245.904 221.513 246.488 221.082 246.92C220.651 247.351 220.066 247.593 219.456 247.593H65.5975C57.2412 247.593 49.2271 244.274 43.3182 238.365C37.4094 232.456 34.0898 224.442 34.0898 216.086C34.0898 207.729 37.4094 199.715 43.3182 193.806C49.2271 187.898 57.2412 184.578 65.5975 184.578H219.456C220.066 184.578 220.651 184.82 221.083 185.252C221.514 185.683 221.756 186.268 221.756 186.878C221.756 187.488 221.514 188.073 221.083 188.504C220.651 188.935 220.066 189.178 219.456 189.178H65.5975C58.4611 189.178 51.6169 192.013 46.5707 197.059C41.5244 202.105 38.6895 208.949 38.6895 216.086C38.6895 223.222 41.5244 230.066 46.5707 235.113C51.6169 240.159 58.4611 242.994 65.5975 242.994H219.456C220.066 242.994 220.651 243.236 221.082 243.668C221.513 244.099 221.756 244.684 221.756 245.294Z" fill="#FDBB22"/>
<path d="M218.075 199.757H57.0869C56.9649 199.757 56.8479 199.708 56.7617 199.622C56.6754 199.536 56.627 199.419 56.627 199.297C56.627 199.175 56.6754 199.058 56.7617 198.972C56.8479 198.885 56.9649 198.837 57.0869 198.837H218.075C218.197 198.837 218.314 198.885 218.4 198.972C218.487 199.058 218.535 199.175 218.535 199.297C218.535 199.419 218.487 199.536 218.4 199.622C218.314 199.708 218.197 199.757 218.075 199.757Z" fill="#CCCCCC"/>
<path d="M218.075 210.796H57.0869C56.9649 210.796 56.8479 210.748 56.7617 210.661C56.6754 210.575 56.627 210.458 56.627 210.336C56.627 210.214 56.6754 210.097 56.7617 210.011C56.8479 209.925 56.9649 209.876 57.0869 209.876H218.075C218.197 209.876 218.314 209.925 218.4 210.011C218.487 210.097 218.535 210.214 218.535 210.336C218.535 210.458 218.487 210.575 218.4 210.661C218.314 210.748 218.197 210.796 218.075 210.796Z" fill="#CCCCCC"/>
<path d="M218.075 221.835H57.0869C56.9649 221.835 56.8479 221.787 56.7617 221.701C56.6754 221.614 56.627 221.497 56.627 221.375C56.627 221.253 56.6754 221.136 56.7617 221.05C56.8479 220.964 56.9649 220.915 57.0869 220.915H218.075C218.197 220.915 218.314 220.964 218.4 221.05C218.487 221.136 218.535 221.253 218.535 221.375C218.535 221.497 218.487 221.614 218.4 221.701C218.314 221.787 218.197 221.835 218.075 221.835Z" fill="#CCCCCC"/>
<path d="M218.075 232.875H57.0869C56.9649 232.875 56.8479 232.826 56.7617 232.74C56.6754 232.654 56.627 232.537 56.627 232.415C56.627 232.293 56.6754 232.176 56.7617 232.089C56.8479 232.003 56.9649 231.955 57.0869 231.955H218.075C218.197 231.955 218.314 232.003 218.4 232.089C218.487 232.176 218.535 232.293 218.535 232.415C218.535 232.537 218.487 232.654 218.4 232.74C218.314 232.826 218.197 232.875 218.075 232.875Z" fill="#CCCCCC"/>
<path d="M333.859 197.214L296.342 243.775L179.687 149.781C166.396 139.072 163.997 119.914 174.341 107.078C184.684 94.241 203.913 92.5101 217.204 103.22L333.859 197.214Z" fill="#F2F2F2"/>
<path d="M299.496 245.726C299.113 246.201 298.557 246.504 297.951 246.569C297.344 246.634 296.737 246.456 296.262 246.074L176.455 149.54C169.948 144.297 165.79 136.684 164.897 128.375C164.003 120.067 166.446 111.744 171.689 105.237C176.932 98.7297 184.545 94.572 192.854 93.6783C201.162 92.7845 209.485 95.2279 215.992 100.471L335.799 197.005C336.034 197.194 336.23 197.428 336.375 197.693C336.52 197.959 336.611 198.25 336.644 198.55C336.676 198.85 336.649 199.154 336.564 199.444C336.479 199.734 336.337 200.004 336.148 200.24C335.958 200.475 335.724 200.671 335.459 200.815C335.194 200.96 334.903 201.051 334.602 201.083C334.302 201.116 333.998 201.088 333.708 201.003C333.418 200.918 333.148 200.776 332.913 200.587L213.106 104.052C210.355 101.834 207.193 100.179 203.802 99.1823C200.411 98.1857 196.857 97.867 193.343 98.2444C189.828 98.6217 186.423 99.6877 183.321 101.382C180.218 103.075 177.48 105.364 175.263 108.116C173.045 110.868 171.391 114.03 170.396 117.422C169.401 120.813 169.084 124.368 169.462 127.882C169.841 131.396 170.908 134.801 172.603 137.903C174.298 141.004 176.588 143.741 179.341 145.958L299.148 242.492C299.622 242.875 299.926 243.431 299.991 244.037C300.056 244.643 299.878 245.251 299.496 245.726Z" fill="#B6FF58"/>
<path d="M325.202 207.959L199.843 106.951C199.796 106.913 199.757 106.867 199.728 106.814C199.699 106.761 199.681 106.702 199.675 106.642C199.668 106.582 199.673 106.522 199.691 106.464C199.708 106.406 199.736 106.352 199.774 106.305C199.812 106.258 199.858 106.218 199.911 106.19C199.964 106.161 200.023 106.142 200.083 106.136C200.143 106.129 200.203 106.135 200.261 106.152C200.319 106.169 200.373 106.197 200.42 106.235L325.779 207.242C325.826 207.28 325.865 207.327 325.894 207.38C325.923 207.433 325.941 207.491 325.948 207.551C325.954 207.612 325.949 207.672 325.932 207.73C325.915 207.788 325.887 207.842 325.849 207.89C325.811 207.937 325.764 207.976 325.711 208.005C325.658 208.034 325.6 208.052 325.54 208.058C325.479 208.065 325.419 208.059 325.361 208.042C325.303 208.025 325.249 207.997 325.202 207.959Z" fill="#CCCCCC"/>
<path d="M318.275 216.555L192.917 115.547C192.822 115.471 192.762 115.36 192.749 115.238C192.736 115.117 192.771 114.996 192.848 114.901C192.924 114.806 193.035 114.745 193.157 114.732C193.278 114.719 193.399 114.755 193.494 114.831L318.853 215.838C318.9 215.876 318.939 215.923 318.968 215.976C318.997 216.029 319.015 216.087 319.022 216.147C319.028 216.208 319.023 216.268 319.006 216.326C318.989 216.384 318.96 216.438 318.923 216.486C318.885 216.533 318.838 216.572 318.785 216.601C318.732 216.63 318.673 216.648 318.613 216.654C318.553 216.661 318.492 216.655 318.434 216.638C318.376 216.621 318.322 216.593 318.275 216.555Z" fill="#CCCCCC"/>
<path d="M311.349 225.151L185.991 124.143C185.896 124.067 185.835 123.956 185.822 123.834C185.809 123.713 185.845 123.592 185.921 123.497C185.998 123.402 186.109 123.341 186.23 123.328C186.351 123.315 186.473 123.35 186.568 123.427L311.926 224.434C311.973 224.472 312.012 224.519 312.041 224.572C312.07 224.625 312.089 224.683 312.095 224.743C312.101 224.803 312.096 224.864 312.079 224.922C312.062 224.98 312.034 225.034 311.996 225.081C311.958 225.128 311.911 225.167 311.858 225.196C311.805 225.225 311.747 225.243 311.687 225.25C311.627 225.256 311.566 225.251 311.508 225.234C311.45 225.217 311.396 225.189 311.349 225.151Z" fill="#CCCCCC"/>
<path d="M304.422 233.747L179.064 132.739C179.017 132.701 178.978 132.655 178.949 132.602C178.92 132.549 178.902 132.49 178.895 132.43C178.889 132.37 178.894 132.31 178.911 132.252C178.928 132.194 178.957 132.14 178.994 132.093C179.032 132.046 179.079 132.006 179.132 131.978C179.185 131.949 179.243 131.93 179.303 131.924C179.363 131.917 179.424 131.923 179.482 131.94C179.54 131.957 179.594 131.985 179.641 132.023L304.999 233.03C305.047 233.068 305.086 233.115 305.115 233.168C305.144 233.221 305.162 233.279 305.169 233.339C305.175 233.4 305.17 233.46 305.153 233.518C305.136 233.576 305.107 233.63 305.069 233.678C305.032 233.725 304.985 233.764 304.932 233.793C304.879 233.822 304.82 233.84 304.76 233.846C304.7 233.853 304.639 233.847 304.581 233.83C304.523 233.813 304.469 233.785 304.422 233.747Z" fill="#CCCCCC"/>
<path d="M155.505 179.673L150.247 179.673L147.746 159.39L155.507 159.391L155.505 179.673Z" fill="#FFB8B8"/>
<path d="M146.492 178.17H156.633V184.555H140.106C140.106 183.717 140.272 182.886 140.592 182.112C140.913 181.337 141.384 180.633 141.977 180.04C142.57 179.447 143.273 178.977 144.048 178.656C144.823 178.335 145.653 178.17 146.492 178.17Z" fill="#2F2E41"/>
<path d="M101.785 179.673L96.5262 179.673L94.0254 159.39L101.786 159.391L101.785 179.673Z" fill="#FFB8B8"/>
<path d="M92.769 178.17H102.91V184.555H86.3838C86.3838 183.717 86.5489 182.886 86.8698 182.112C87.1907 181.337 87.6611 180.633 88.254 180.04C88.8469 179.447 89.5508 178.977 90.3255 178.656C91.1002 178.335 91.9305 178.17 92.769 178.17Z" fill="#2F2E41"/>
<path d="M119.349 29.223V26.9232C119.349 22.989 120.911 19.2159 123.693 16.434C126.475 13.6521 130.248 12.0893 134.183 12.0893C138.117 12.0893 141.89 13.6521 144.672 16.434C147.454 19.2159 149.016 22.989 149.016 26.9232V29.223C149.016 32.0593 147.89 34.7794 145.884 36.785C143.879 38.7906 141.159 39.9173 138.322 39.9173H130.043C128.638 39.9173 127.248 39.6406 125.95 39.1032C124.653 38.5658 123.474 37.778 122.481 36.785C121.488 35.7919 120.7 34.613 120.163 33.3155C119.625 32.0181 119.349 30.6274 119.349 29.223Z" fill="#2F2E41"/>
<path d="M134.182 40.7087C140.421 40.7087 145.479 35.6507 145.479 29.4114C145.479 23.1721 140.421 18.1142 134.182 18.1142C127.943 18.1142 122.885 23.1721 122.885 29.4114C122.885 35.6507 127.943 40.7087 134.182 40.7087Z" fill="#FFB8B8"/>
<path d="M72.7322 68.2386C73.1907 67.8057 73.7385 67.4785 74.3371 67.2803C74.9356 67.082 75.5704 67.0173 76.1966 67.0909C76.8228 67.1644 77.4253 67.3744 77.9616 67.706C78.4979 68.0376 78.955 68.4828 79.3007 69.0101L88.9851 67.1782L91.5337 72.7919L77.8211 75.1868C76.8967 75.7088 75.8129 75.8735 74.7752 75.6498C73.7374 75.4261 72.8178 74.8295 72.1905 73.973C71.5632 73.1165 71.2719 72.0597 71.3718 71.0028C71.4716 69.9459 71.9557 68.9624 72.7322 68.2386Z" fill="#FFB8B8"/>
<path d="M125.502 48.0152L109.621 58.4768L82.824 67.0337C82.4688 67.1478 82.1641 67.3815 81.9618 67.6951C81.7595 68.0086 81.6722 68.3825 81.7146 68.7532L82.2991 73.7882C82.3251 74.0111 82.3973 74.2261 82.5111 74.4194C82.625 74.6127 82.778 74.78 82.9603 74.9108C83.1427 75.0415 83.3503 75.1327 83.5699 75.1785C83.7895 75.2242 84.0163 75.2236 84.2357 75.1767L109.456 69.7708C110.676 69.5107 111.83 69.0025 112.846 68.278L130.687 55.5843C131.334 55.1216 131.85 54.4995 132.185 53.7783C132.52 53.0571 132.663 52.2615 132.6 51.4688C132.535 50.675 132.264 49.9119 131.814 49.2545C131.364 48.5972 130.751 48.0683 130.035 47.7198C129.318 47.3714 128.524 47.2154 127.729 47.2671C126.934 47.3189 126.167 47.5767 125.502 48.0152Z" fill="#E6EBEF"/>
<path d="M150.342 173.917C149.939 173.917 149.544 173.8 149.206 173.579C148.868 173.359 148.601 173.044 148.439 172.675L124.332 113.109C124.276 112.98 124.181 112.871 124.061 112.797C123.941 112.723 123.802 112.688 123.661 112.695C123.52 112.703 123.385 112.754 123.274 112.841C123.163 112.928 123.082 113.047 123.04 113.181L103.373 171.171C103.29 171.441 103.153 171.691 102.969 171.906C102.786 172.121 102.561 172.296 102.307 172.42C102.054 172.545 101.778 172.616 101.496 172.63C101.214 172.644 100.932 172.6 100.668 172.501L94.0724 170.028C93.7144 169.895 93.4004 169.665 93.1651 169.364C92.9299 169.063 92.7827 168.703 92.7399 168.324C89.7729 142.477 115.646 77.2368 115.908 76.5809L115.98 76.3992L139.566 81.6165L139.615 81.67C149.025 91.9355 156.76 156.682 158.215 169.557C158.269 170.023 158.163 170.492 157.915 170.889C157.666 171.286 157.29 171.586 156.848 171.741L151.027 173.8C150.807 173.877 150.575 173.917 150.342 173.917Z" fill="#577B94"/>
<path d="M130.02 83.7165C124.305 83.7165 117.934 82.5771 115.973 77.8746L115.928 77.7666L115.989 77.6664C117.537 75.1267 119.583 70.7943 118.483 69.981C116.317 68.3795 115.266 65.7448 115.359 62.1499C115.562 54.3462 120.879 47.4178 128.591 44.9093C130.743 44.2204 132.934 43.6564 135.151 43.2201C136.768 42.8939 138.437 42.9298 140.038 43.3252C141.639 43.7206 143.132 44.4657 144.411 45.5069C145.706 46.555 146.753 47.8769 147.477 49.3777C148.2 50.8785 148.582 52.5208 148.595 54.1868C148.676 62.5264 147.392 74.1416 140.816 82.116C140.508 82.486 140.079 82.7354 139.605 82.8204C136.441 83.3926 133.234 83.6924 130.02 83.7165Z" fill="#E6EBEF"/>
<path d="M127.895 83.4042C128.206 82.2886 128.945 81.3409 129.951 80.7669C130.957 80.1929 132.148 80.0391 133.267 80.3389C133.495 80.4027 133.718 80.4852 133.933 80.5855L141.286 73.8936L146.4 77.3388L135.885 86.6444C135.41 87.5005 134.662 88.1732 133.761 88.5555C132.86 88.9378 131.856 89.0077 130.911 88.7541C130.36 88.6033 129.845 88.3449 129.394 87.9937C128.944 87.6425 128.568 87.2056 128.287 86.7081C128.007 86.2106 127.828 85.6625 127.761 85.0954C127.693 84.5283 127.739 83.9535 127.895 83.4042Z" fill="#FFB8B8"/>
<path d="M140.12 83.4892C139.643 83.4895 139.18 83.3245 138.811 83.0223L135.911 80.6526C135.67 80.455 135.476 80.2054 135.344 79.9223C135.213 79.6392 135.147 79.33 135.152 79.0179C135.156 78.7057 135.232 78.3987 135.372 78.1198C135.512 77.841 135.714 77.5974 135.962 77.4074L148.124 68.0794C148.268 67.9683 148.363 67.8048 148.387 67.6245C148.411 67.4441 148.364 67.2614 148.254 67.1159L140.747 57.1916C139.875 56.0424 139.438 54.6217 139.513 53.181C139.587 51.7403 140.169 50.3724 141.156 49.3196C142.194 48.1977 143.617 47.5073 145.141 47.3854C146.665 47.2635 148.179 47.719 149.383 48.6616L149.431 48.7117L157.27 59.9359C158.117 60.6005 158.8 61.4521 159.264 62.4241C159.728 63.3961 159.961 64.4622 159.945 65.5393C159.929 66.6163 159.664 67.675 159.171 68.6327C158.679 69.5905 157.971 70.4214 157.104 71.0604L141.352 83.0833C140.995 83.3469 140.564 83.4892 140.12 83.4892Z" fill="#E6EBEF"/>
<path d="M124.176 26.2333V20.6281L134.183 16.2584L143.724 20.6281V26.2333C143.724 26.4773 143.627 26.7113 143.455 26.8838C143.282 27.0563 143.048 27.1532 142.804 27.1532H125.096C124.852 27.1532 124.618 27.0563 124.445 26.8838C124.273 26.7113 124.176 26.4773 124.176 26.2333Z" fill="#2F2E41"/>
<path d="M133.723 12.8329C132.251 8.12351 135.341 2.72635 139.91 0.862258C144.478 -1.00183 149.943 0.301223 153.798 3.38098C157.652 6.46074 160.044 11.0736 161.311 15.842C162.578 20.6104 162.819 25.5826 163.053 30.511C168.665 31.5419 172.483 38.199 170.539 43.564C168.595 48.9291 161.398 51.5945 156.428 48.7903C151.458 45.9861 150.019 38.4482 153.606 34.0099C155.303 31.9098 156.251 29.3035 156.3 26.6038C156.349 23.904 155.495 21.2652 153.875 19.1052C152.255 16.9452 149.96 15.3875 147.354 14.6788C144.749 13.9702 141.981 14.151 139.49 15.1928C136.724 16.3496 133.253 13.344 133.723 12.8329Z" fill="#2F2E41"/>
</svg>
