<svg width="442" height="338" viewBox="0 0 442 338" fill="none" xmlns="http://www.w3.org/2000/svg">
    <g clip-path="url(#clip0_3239_3375)">
        <path d="M412.096 291.316L412.851 274.328C420.728 270.118 429.512 267.894 438.443 267.85C426.152 277.899 427.688 297.27 419.355 310.783C416.723 314.978 413.182 318.527 408.993 321.167C404.803 323.807 400.073 325.47 395.154 326.034L384.868 332.332C383.457 324.463 383.768 316.383 385.78 308.647C387.793 300.91 391.458 293.702 396.524 287.519C399.401 284.078 402.699 281.014 406.342 278.397C408.805 284.893 412.096 291.316 412.096 291.316Z" fill="#F2F2F2"/>
        <path d="M256.122 336.561C250.883 336.188 249.517 337.221 241.59 336.561H227.059L228.949 301.786L251.826 310.952L365.51 313.743L365.443 313.936C365.392 314.085 360.344 328.849 364.29 334.439L364.453 334.671L364.134 334.674L259.847 335.63C258.708 335.641 257.251 336.641 256.122 336.561Z" fill="#F2F2F2"/>
        <path d="M262.018 337.015C251.898 336.295 241.419 340.229 232.673 335.788L225.682 336.211L225.662 336.152C225.608 335.991 222.305 310.006 228.982 299.93L229.276 299.487L229.505 301.873L227.304 334.244L232.182 332.615C244.03 338.192 258.121 334.509 271.681 334.458L363.964 334.117C365.897 334.11 367.508 335.431 367.559 337.062L367.564 337.221L267.592 337.213C265.728 337.213 263.87 337.147 262.018 337.015Z" fill="#CCCCCC"/>
        <path d="M359.1 320.757L255.249 318.692L255.143 318.653L230.607 309.457L231.07 308.22L255.501 317.377L359.126 319.436L359.1 320.757Z" fill="#E6E6E6"/>
        <path d="M358.546 326.317L254.695 324.253L254.59 324.214L230.053 315.018L230.516 313.781L254.948 322.938L358.572 324.996L358.546 326.317Z" fill="#E6E6E6"/>
        <path d="M357.992 331.879L254.141 329.814L254.035 329.775L229.499 320.578L229.962 319.341L254.393 328.498L358.018 330.558L357.992 331.879Z" fill="#E6E6E6"/>
        <path d="M262.736 314.102C253.107 313.452 243.719 310.803 235.17 306.324L227.972 302.507L228.16 300.619C228.213 300.342 228.366 300.094 228.59 299.923C228.814 299.752 229.093 299.67 229.374 299.693L230.01 299.701L326.86 301.126C333.199 301.205 339.48 302.345 345.442 304.499L366.544 312.16L366.533 312.271C366.356 314.05 364.563 315.424 362.451 315.399L267.05 314.281C265.607 314.264 264.169 314.204 262.736 314.102Z" fill="#E6E6E6"/>
        <path d="M366.341 312.569L366.32 312.567L250.179 309.906L250.098 309.869L229.158 300.172L229.371 299.848L230.007 299.856L250.373 309.292L365.437 311.926L366.359 311.948L366.341 312.569Z" fill="#CCCCCC"/>
        <path d="M276.052 300.534L274.578 300.514L241.293 300.021L239.716 299.999C247.321 308.096 264.137 310.122 288.785 306.985L276.052 300.534Z" fill="#CCCCCC"/>
        <path d="M369.632 106.881L371.663 111.604L368.345 128.378L334.49 123.671L334.76 103.217L335.44 98.7371L369.632 106.881Z" fill="#FFB6B6"/>
        <path d="M387.123 324.275H379.654L376.099 295.466H387.123V324.275Z" fill="#FFB6B6"/>
        <path d="M364.907 334.026C364.908 334.872 365.244 335.683 365.842 336.281C366.441 336.879 367.252 337.216 368.098 337.217H382.308L384.757 332.16L385.708 337.217H391.064L389.559 319.157L387.124 319.014L378.944 318.527L377.626 318.445V323.561L366.285 331.396C365.86 331.69 365.512 332.083 365.272 332.541C365.032 332.999 364.907 333.508 364.907 334.026Z" fill="#2F2E41"/>
        <path d="M318.088 291.249H310.619L306.225 248.836L320.259 247.998L318.088 291.249Z" fill="#FFB6B6"/>
        <path d="M295.871 301C295.871 301.846 296.208 302.657 296.806 303.255C297.404 303.854 298.216 304.19 299.062 304.191H313.271L315.721 299.135L316.672 304.191H322.028L320.522 286.131L318.35 286.003L310.028 285.502L308.59 285.419V290.535L297.249 298.371C296.824 298.665 296.476 299.057 296.236 299.515C295.996 299.973 295.871 300.483 295.871 301Z" fill="#2F2E41"/>
        <path d="M390.294 299.432H390.265L388.829 252.589C389.758 250.796 390.23 248.801 390.202 246.781C390.174 244.762 389.647 242.78 388.668 241.014L388.462 240.642L388.996 238.17C389.68 234.994 389.366 231.684 388.096 228.694L386.756 184.999C391.543 153.972 368.727 133.737 368.727 133.737L370.824 117.475L333.921 118.313L334.549 133.737L327.211 158.948C323.35 196.57 297.36 220.218 301.31 256.196C301.318 256.299 301.303 256.403 301.265 256.5C300.864 257.719 300.723 259.008 300.851 260.284C300.979 261.561 301.373 262.797 302.007 263.912C302.171 264.196 302.285 264.508 302.341 264.832C303.155 271.139 303.261 263.16 304.339 269.412L304.13 269.518C303.374 269.779 303.05 270.826 303.406 271.856C303.761 272.887 304.662 273.511 305.418 273.25L325.145 273.461C325.901 273.2 326.225 272.153 325.869 271.123C325.514 270.092 324.613 269.468 323.857 269.729L322.63 270.35L324.683 263.632L325.403 262.96C325.748 262.638 326.015 262.242 326.186 261.802C326.356 261.362 326.424 260.889 326.386 260.419C326.348 259.949 326.204 259.493 325.965 259.087C325.726 258.68 325.398 258.333 325.005 258.071L327.051 247.154L326.76 238.898L327.359 229.531L353.243 192.024L363.716 243.833L374.413 299.953C374.164 300.178 373.976 300.464 373.869 300.782C373.761 301.1 373.737 301.441 373.8 301.771C373.898 302.233 374.154 302.645 374.523 302.939C374.893 303.232 375.353 303.388 375.825 303.379H390.346C390.651 303.379 390.951 303.309 391.224 303.173C391.497 303.038 391.734 302.841 391.919 302.599C392.103 302.357 392.229 302.075 392.287 301.776C392.344 301.477 392.332 301.169 392.251 300.875C392.129 300.453 391.871 300.083 391.517 299.822C391.163 299.561 390.734 299.424 390.294 299.432Z" fill="#2F2E41"/>
        <path d="M377.38 27.1738C377.381 30.1645 376.648 33.1098 375.245 35.7511C373.842 38.3923 371.812 40.6489 369.334 42.3225C366.855 43.9962 364.004 45.0359 361.03 45.3502C358.056 45.6646 355.05 45.2441 352.276 44.1255C349.502 43.007 347.046 41.2247 345.121 38.9351C343.197 36.6455 341.865 33.9185 341.241 30.9937C340.616 28.0688 340.72 25.0354 341.542 22.1598C342.363 19.2842 343.879 16.6544 345.954 14.501L346.042 14.4134C346.188 14.2599 346.334 14.1064 346.488 13.9602L346.49 13.9597L346.493 13.9581L346.494 13.9557L346.495 13.9529C346.704 13.7999 346.898 13.6261 347.072 13.434C349.539 9.98742 352.335 7.09739 359.109 8.9029C368.861 11.5023 377.38 17.0809 377.38 27.1738Z" fill="#2F2E41"/>
        <path d="M277.014 19.3522C276.973 20.3297 277.146 21.3045 277.522 22.2077C277.898 23.111 278.468 23.9208 279.191 24.5802C279.913 25.2395 280.772 25.7323 281.706 26.0239C282.64 26.3155 283.626 26.3988 284.596 26.2679L331.716 64.9388L338.913 52.2885L290.333 18.2542C290.005 16.6398 289.096 15.2019 287.779 14.2128C286.462 13.2236 284.827 12.7521 283.186 12.8874C281.544 13.0228 280.009 13.7556 278.871 14.9471C277.734 16.1386 277.073 17.706 277.014 19.3522Z" fill="#FFB6B6"/>
        <path d="M351.612 76.3432C351.612 76.3432 351.597 74.9505 344.107 75.0041C334.809 75.0705 309.201 61.7217 311.441 49.1499C310.378 49.6304 309.185 49.7435 308.05 49.4713C306.915 49.1991 305.903 48.5571 305.173 47.6465L317.64 35.6439C321.551 35.9081 321.592 38.5257 321.256 40.0288L331.275 44.0099L357.37 59.0017L352.762 74.0607L351.612 76.3432Z" fill="#89BF42"/>
        <path d="M354.608 46.722C363.07 46.722 369.929 39.8626 369.929 31.4011C369.929 22.9396 363.07 16.0802 354.608 16.0802C346.146 16.0802 339.287 22.9396 339.287 31.4011C339.287 39.8626 346.146 46.722 354.608 46.722Z" fill="#FFB7B7"/>
        <path d="M333.551 107.606C332.705 108.735 332.273 110.121 332.327 111.532C332.382 112.942 332.92 114.29 333.851 115.351C333.858 115.801 333.926 116.235 334.562 117.846C334.646 118.002 334.743 118.15 334.854 118.287C334.875 118.321 334.898 118.354 334.922 118.385C335.592 119.252 336.525 119.88 337.581 120.175L365.626 128.003L369.334 129.036L369.986 129.216L370.345 124.153C371.179 123.461 371.738 122.494 371.921 121.427C372.103 120.359 371.898 119.262 371.341 118.332L370.825 117.478L373.836 109.381L374.128 108.58L381.806 87.9129L381.813 86.5346L381.828 85.1114L381.903 75.1788C381.907 72.0483 381.185 68.9596 379.794 66.155C378.404 63.3504 376.382 60.9061 373.888 59.014C371.617 57.2782 368.998 56.052 366.21 55.4185L366.15 55.411L363.117 51.3286L350.81 52.557L349.791 54.6469L348.555 57.1638L339.633 62.4746L336.585 69.5608L334.525 74.3548C331.334 76.647 329.431 79.5908 328.884 83.0964C327.716 90.5421 332.929 97.9953 333.551 98.8492L333.708 107.396L333.551 107.606Z" fill="#89BF42"/>
        <path d="M370.642 35.4176C370.503 35.3957 370.364 35.3664 370.225 35.3444C367.835 34.9206 365.446 34.5041 363.063 34.0728L362.844 28.672L359.957 33.51C353.372 35.6952 347.211 34.4602 341.416 31.7342C339.504 30.8267 337.649 29.8041 335.861 28.672C335.273 19.538 338.966 13.6905 345.837 14.3038C346.088 14.3262 346.269 14.0699 346.488 13.9602L346.491 13.9597L346.493 13.9581L346.495 13.9557L346.495 13.9529C346.868 13.7775 347.248 13.6094 347.628 13.456C350.603 12.2932 353.847 11.9988 356.983 12.6068C360.119 13.2149 363.018 14.7004 365.343 16.8909C370.021 21.3563 372.125 28.7305 370.642 35.4176Z" fill="#2F2E41"/>
        <path d="M370.225 35.3445C370.225 35.3445 365.687 18.4037 346.232 14.4937C346.21 14.4865 346.137 14.4572 346.042 14.4134C345.983 14.3768 345.91 14.3403 345.837 14.3038C346.056 14.1795 346.268 14.07 346.488 13.9602L346.49 13.9597L346.493 13.9581L346.494 13.9557L346.495 13.9529C346.685 13.7775 346.875 13.6021 347.072 13.434L347.628 13.456C347.628 13.456 367.148 10.3646 370.225 35.3445Z" fill="#FDBB22"/>
        <path d="M377.71 142.135C377.349 142.443 376.911 142.646 376.444 142.722C375.976 142.797 375.496 142.743 375.057 142.564C374.184 142.194 373.408 141.626 372.79 140.906C370.27 138.263 368.469 135.018 367.56 131.48L368.401 129.985C368.071 128.141 368.381 126.24 369.28 124.597C370.18 122.954 371.614 121.668 373.345 120.952C374.33 120.535 375.422 120.44 376.464 120.681C376.981 120.809 377.453 121.075 377.832 121.45C378.21 121.824 378.48 122.294 378.613 122.81C378.937 124.409 377.605 125.854 376.256 126.772C373.905 128.367 371.188 129.339 368.358 129.597C371.819 131.548 374.811 134.233 377.123 137.463C377.658 138.137 378.052 138.911 378.283 139.739C378.393 140.155 378.399 140.591 378.299 141.01C378.199 141.428 377.997 141.815 377.71 142.135Z" fill="#2F2E41"/>
        <path d="M184.05 337.76H441.176C441.395 337.76 441.604 337.673 441.759 337.519C441.913 337.364 442 337.155 442 336.937C442 336.718 441.913 336.509 441.759 336.354C441.604 336.2 441.395 336.113 441.176 336.113H184.05C183.832 336.113 183.622 336.2 183.468 336.354C183.313 336.509 183.227 336.718 183.227 336.937C183.227 337.155 183.313 337.364 183.468 337.519C183.622 337.673 183.832 337.76 184.05 337.76Z" fill="#CCCCCC"/>
        <path d="M252.338 126.006V126.436C251.411 125.351 250.466 124.275 249.531 123.199C249.138 122.75 248.745 122.301 248.352 121.852C246.687 119.962 245.012 118.079 243.328 116.201C241.635 114.33 239.941 112.459 238.229 110.597C237.818 110.148 237.406 109.699 236.985 109.25C236.648 108.873 236.282 108.522 235.89 108.202C235.495 107.873 235.041 107.623 234.553 107.463C233.99 107.307 233.397 107.301 232.831 107.444C232.185 107.594 231.568 107.828 230.941 108.025C230.296 108.24 229.66 108.445 229.014 108.651C227.723 109.072 226.441 109.493 225.15 109.914C225.135 109.921 225.118 109.924 225.101 109.924C225.084 109.924 225.068 109.92 225.052 109.914C225.037 109.907 225.023 109.898 225.011 109.886C224.999 109.874 224.99 109.86 224.983 109.844L224.982 109.839C224.974 109.822 224.971 109.803 224.972 109.783C224.973 109.764 224.978 109.746 224.987 109.729C224.996 109.712 225.008 109.697 225.024 109.685C225.039 109.674 225.057 109.666 225.075 109.662C225.394 109.559 225.721 109.456 226.048 109.353C227.349 108.923 228.64 108.502 229.94 108.081C230.586 107.865 231.231 107.66 231.877 107.454C232.476 107.226 233.108 107.1 233.748 107.08C234.793 107.155 235.773 107.615 236.499 108.371C236.901 108.745 237.266 109.138 237.631 109.54C238.061 110.008 238.491 110.476 238.922 110.943C240.652 112.833 242.371 114.729 244.076 116.632C245.789 118.54 247.485 120.452 249.166 122.367C249.288 122.507 249.409 122.647 249.531 122.788C250.476 123.854 251.402 124.93 252.338 126.006Z" fill="white"/>
        <path d="M235.745 109.926C235.392 109.471 234.921 109.121 234.383 108.913L233.851 108.932C238.026 115.43 243.497 120.997 249.921 125.285C245.195 120.165 240.47 115.046 235.745 109.926Z" fill="white"/>
        <path d="M322.887 177.45L301.693 63.9677C301.33 62.097 300.343 60.405 298.892 59.1691C297.442 57.9332 295.615 57.2268 293.71 57.1657C293.539 57.1619 293.367 57.1619 293.196 57.1657L278.758 57.6836L277.204 57.7407L269.998 57.9997L268.444 58.053L263.809 58.2206L170.348 61.5759C170.207 61.5835 170.062 61.5835 169.921 61.5797L148.978 61.1417L141.228 60.9818L140.98 60.978L135.26 60.8561L85.4138 59.8202L72.1982 59.5421L65.6818 59.4089L64.1203 59.3746L56.6899 59.2222L55.1322 59.1879L47.5303 59.0318L45.9726 58.9975L37.6205 58.8223L36.3104 58.7956L28.8609 58.6395L27.6841 58.6166H27.5127C25.535 58.6247 23.6239 59.3317 22.1171 60.6127C20.6103 61.8937 19.6049 63.6661 19.2787 65.6167L0.110306 183.377C-0.0843473 184.569 -0.0173306 185.79 0.306699 186.955C0.630728 188.119 1.20401 189.199 1.98687 190.12C2.76973 191.041 3.74343 191.781 4.84052 192.288C5.93761 192.795 7.13186 193.058 8.34054 193.058H118.422C120.043 193.062 121.619 193.583 122.924 194.543L125.011 196.089C126.45 197.148 128.188 197.722 129.974 197.727C151.234 192.116 173.587 192.116 194.848 197.727C195.944 197.73 197.03 197.515 198.043 197.096C199.055 196.676 199.975 196.059 200.748 195.282C202.069 193.961 203.833 193.175 205.699 193.077L315.125 187.311C316.312 187.249 317.472 186.934 318.527 186.387C319.582 185.841 320.508 185.075 321.243 184.141C321.978 183.207 322.505 182.127 322.788 180.974C323.072 179.82 323.106 178.618 322.887 177.45Z" fill="#CCCCCC"/>
        <path d="M292.899 159.754C292.759 163.6 291.097 167.232 288.279 169.853C285.462 172.474 281.718 173.868 277.873 173.73C271.518 173.506 263.936 173.394 255.706 173.565C228.829 174.14 195.064 177.839 174.753 191.142C172.2 192.817 169.184 193.645 166.133 193.506C165.909 193.493 165.691 193.48 165.466 193.46C162.304 193.171 159.324 191.85 156.985 189.702C145.796 179.464 120.135 167.066 61.3955 166.194C61.1511 166.194 60.9133 166.181 60.6755 166.168C58.773 166.048 56.9127 165.554 55.201 164.715C53.4893 163.876 51.9598 162.708 50.6998 161.278C49.4399 159.847 48.4741 158.182 47.8579 156.378C47.2417 154.574 46.9871 152.667 47.1085 150.764L52.8814 59.1443L53.7467 45.4122L55.2659 21.3893C55.4191 18.97 56.4875 16.6998 58.2542 15.0399C60.0208 13.38 62.3532 12.4549 64.7773 12.4525H64.8367L99.8308 12.6573C114.574 13.3244 126.784 15.2025 136.463 18.2915C139.769 19.3167 142.986 20.6113 146.08 22.1621C150.307 24.2113 154.104 27.047 157.269 30.5177C159.241 32.7348 161.93 34.1869 164.865 34.6194C165.32 34.6874 165.779 34.7293 166.239 34.7449C168.946 34.8569 171.617 34.0925 173.855 32.5652C196.715 17.2479 243.301 16.0854 269.028 16.7459C272.626 16.8298 276.064 18.2501 278.672 20.73C281.28 23.2099 282.872 26.5718 283.137 30.161L284.18 43.827L285.218 57.4534L291.202 136.207L292.866 158.116C292.907 158.661 292.918 159.208 292.899 159.754Z" fill="#F2F2F2"/>
        <path d="M70.1012 44.6922C91.1895 37.964 114.716 39.7452 134.695 49.2239C140.395 51.9144 145.778 55.2302 150.746 59.1102C152.151 60.2131 154.151 58.2403 152.731 57.1256C134.381 42.8931 111.325 36.1319 88.1951 38.2007C81.7961 38.7733 75.4787 40.0425 69.355 41.9857C67.6407 42.5327 68.3735 45.2434 70.1012 44.6922Z" fill="#3F3D56"/>
        <path d="M186.143 60.199C205.75 49.8935 229.228 47.6462 250.546 53.4961C256.623 55.1598 262.497 57.4951 268.057 60.4587C269.65 61.3087 271.07 58.8867 269.474 58.0352C249.156 47.194 224.768 44.6983 202.581 50.7417C196.391 52.4306 190.405 54.7891 184.726 57.7755C183.127 58.6162 184.544 61.0395 186.143 60.199Z" fill="#3F3D56"/>
        <path d="M186.143 78.9102C205.75 68.6047 229.228 66.3574 250.546 72.2073C256.623 73.871 262.497 76.2063 268.057 79.1699C269.65 80.0199 271.07 77.598 269.474 76.7464C249.156 65.9052 224.768 63.4095 202.581 69.4529C196.391 71.1418 190.405 73.5003 184.726 76.4867C183.127 77.3274 184.544 79.7507 186.143 78.9102Z" fill="#3F3D56"/>
        <path d="M270.161 96.6177C270.176 96.3767 270.117 96.137 269.994 95.9295C269.871 95.722 269.688 95.5565 269.469 95.4543C253.193 86.9316 234.739 83.4749 216.481 85.5291C216.367 85.5383 216.262 85.5566 216.138 85.5657H216.133C216.021 85.5758 215.909 85.5927 215.799 85.6162C204.94 86.8657 194.405 90.1127 184.727 95.1933C184.516 95.3189 184.341 95.4973 184.22 95.7109C184.099 95.9245 184.035 96.166 184.036 96.4116V131.317C184.039 131.532 184.091 131.743 184.188 131.935C184.286 132.126 184.425 132.293 184.596 132.423C184.767 132.553 184.966 132.642 185.177 132.683C185.387 132.725 185.605 132.718 185.813 132.664C186.243 132.54 186.674 132.421 187.113 132.306C196.898 129.658 206.942 128.087 217.068 127.621C217.283 127.612 217.498 127.602 217.723 127.593C225.97 127.239 234.232 127.536 242.432 128.482C242.604 128.492 242.775 128.51 242.945 128.537C243.367 128.583 243.797 128.633 244.219 128.688C244.388 128.706 244.549 128.725 244.704 128.752C246.344 128.958 247.97 129.192 249.6 129.444C251.955 129.819 254.309 130.238 256.663 130.699C256.81 130.726 256.961 130.763 257.112 130.79C260.89 131.541 264.651 132.412 268.393 133.373C268.601 133.427 268.819 133.433 269.03 133.39C269.241 133.348 269.439 133.258 269.611 133.127C269.782 132.997 269.921 132.829 270.018 132.637C270.115 132.445 270.167 132.233 270.17 132.018V96.6726C270.171 96.6538 270.168 96.6349 270.161 96.6177Z" fill="#3F3D56"/>
        <path d="M218.682 87.4324C217.653 86.9288 216.475 86.8253 215.374 87.1419C214.888 87.3241 214.443 87.6011 214.065 87.9567C213.687 88.3123 213.383 88.7395 213.172 89.2135C212.79 90.1222 212.546 91.0825 212.447 92.063C212.389 92.4487 212.385 92.9353 212.773 93.1154C212.913 93.1664 213.065 93.1781 213.212 93.149C213.359 93.1199 213.495 93.0512 213.606 92.9504C213.806 92.7531 213.971 92.5229 214.093 92.2699C214.767 91.2227 215.693 90.362 216.787 89.7673C217.88 89.1727 219.106 88.8633 220.351 88.8677L221.387 89.2807C220.572 88.5465 219.662 87.9248 218.682 87.4324Z" fill="#FF6582"/>
        <path d="M229.896 95.4776C229.092 94.2938 228.139 93.0299 226.647 92.6433C224.919 92.1957 223.144 93.0849 221.638 93.9625C217.16 96.5702 212.824 99.4139 208.648 102.482L208.653 102.528L218.346 101.933C220.68 101.789 223.095 101.626 225.158 100.643C225.899 100.179 226.727 99.8705 227.591 99.7372C228.127 99.7663 228.652 99.9012 229.136 100.134C229.62 100.367 230.053 100.694 230.409 101.095C234.877 105.329 236.169 111.805 241.181 115.525C237.992 108.536 234.217 101.83 229.896 95.4776Z" fill="white"/>
        <path d="M217.724 127.593C217.5 127.602 217.284 127.611 217.069 127.621C215.507 127.059 213.907 126.564 212.288 126.133C211.241 125.852 210.174 125.6 209.107 125.385C207.901 125.123 206.684 124.917 205.468 124.739C203.153 124.402 200.819 124.206 198.48 124.15C198.462 124.152 198.444 124.15 198.427 124.144C198.41 124.139 198.394 124.13 198.381 124.118C198.368 124.106 198.357 124.092 198.35 124.075C198.343 124.059 198.339 124.041 198.339 124.024C198.339 124.006 198.343 123.988 198.35 123.972C198.357 123.955 198.368 123.941 198.381 123.929C198.394 123.917 198.41 123.908 198.427 123.903C198.444 123.897 198.462 123.895 198.48 123.897C198.779 123.897 199.078 123.907 199.368 123.925C201.713 124.012 204.049 124.24 206.366 124.608C207.573 124.805 208.78 125.039 209.978 125.301C211.063 125.544 212.148 125.815 213.215 126.115C214.739 126.545 216.243 127.038 217.724 127.593Z" fill="white"/>
        <path d="M244.706 128.753C244.547 128.725 244.387 128.706 244.219 128.687C243.574 128.154 242.919 127.649 242.236 127.153C241.384 126.535 240.505 125.955 239.607 125.413C237.618 124.205 235.541 123.148 233.395 122.251C230.001 120.837 226.488 119.729 222.898 118.939C218.802 118.042 214.656 117.392 210.483 116.993C206.31 116.562 202.119 116.3 197.928 116.038C197.75 116.029 197.741 115.767 197.928 115.777C198.452 115.814 198.976 115.842 199.509 115.879C203.747 116.141 207.985 116.441 212.195 116.918C216.369 117.365 220.51 118.084 224.591 119.07C228.075 119.928 231.475 121.096 234.751 122.559C236.636 123.406 238.461 124.378 240.215 125.469C241.328 126.171 242.404 126.919 243.433 127.714C243.864 128.051 244.294 128.388 244.706 128.753Z" fill="white"/>
        <path d="M242.947 128.538C242.776 128.51 242.605 128.491 242.432 128.481C242.236 128.322 242.03 128.173 241.824 128.023C240.384 126.992 238.881 126.052 237.324 125.207C235.91 124.438 234.458 123.742 232.974 123.121C229.581 121.703 226.068 120.595 222.477 119.809C218.381 118.912 214.235 118.262 210.062 117.863C205.889 117.432 201.698 117.171 197.507 116.909C197.329 116.89 197.329 116.637 197.507 116.647C198.04 116.684 198.564 116.712 199.088 116.75C203.326 117.011 207.564 117.311 211.774 117.788C215.948 118.235 220.089 118.954 224.17 119.94C227.654 120.797 231.055 121.965 234.33 123.429C235.565 123.991 236.772 124.599 237.951 125.263C239.699 126.223 241.369 127.318 242.947 128.538Z" fill="white"/>
        <path d="M257.111 130.792C256.962 130.764 256.812 130.727 256.662 130.699C256.494 130.521 256.335 130.334 256.176 130.147C255.371 129.221 254.576 128.285 253.79 127.34C250.693 123.654 247.755 119.856 244.986 115.982C242.61 112.67 240.355 109.293 238.222 105.85C237.202 104.222 236.22 102.576 235.257 100.91C234.508 99.6194 233.778 98.3253 233.067 97.0279C232.861 96.6537 232.665 96.2794 232.469 95.9052C232.01 95.0257 231.551 94.137 231.065 93.2669C230.536 92.201 229.76 91.2771 228.801 90.5725C228.322 90.2516 227.767 90.0613 227.192 90.0206C226.381 90.0236 225.583 90.2294 224.872 90.6192C219.637 93.0567 214.7 96.0859 210.155 99.6474C205.717 103.1 201.703 107.066 198.199 111.464C198.087 111.595 197.843 111.473 197.946 111.333C198.367 110.809 198.798 110.285 199.228 109.77C202.596 105.786 206.389 102.182 210.539 99.0206C210.548 99.0112 210.567 99.0019 210.576 98.9926C210.941 98.7025 211.306 98.4219 211.68 98.1506C213.997 96.4444 216.409 94.8701 218.903 93.4353C220.175 92.6962 221.476 91.9945 222.804 91.3303C223.131 91.162 223.468 90.9935 223.805 90.8345C224.142 90.6661 224.479 90.5071 224.815 90.3479C225.482 90.008 226.211 89.8075 226.958 89.7586C229.559 89.7212 230.897 92.3408 231.823 94.1089C232.113 94.661 232.412 95.2129 232.702 95.7649C233.825 97.8512 234.995 99.9282 236.211 101.977C236.95 103.249 237.717 104.512 238.494 105.766C239.607 107.553 240.748 109.321 241.936 111.08C241.936 111.081 241.936 111.083 241.937 111.084C241.937 111.085 241.938 111.086 241.939 111.087C241.94 111.088 241.941 111.088 241.942 111.089C241.943 111.089 241.944 111.089 241.945 111.089C243.321 113.166 244.752 115.206 246.231 117.236C248.766 120.707 251.423 124.1 254.202 127.415C255.156 128.556 256.126 129.682 257.111 130.792Z" fill="white"/>
        <path d="M223.733 89.4734L223.474 89.5866C222.882 88.5856 222.051 87.7466 221.056 87.1441C220.06 86.5416 218.932 86.1943 217.77 86.1331C213.94 85.861 210.575 88.4135 210.269 91.8227C210.145 93.2265 210.552 94.6259 211.408 95.7448L211.168 95.8868C210.276 94.7216 209.853 93.2643 209.982 91.8023C210.3 88.2521 213.804 85.5939 217.793 85.8772C219.003 85.941 220.178 86.3026 221.214 86.93C222.251 87.5574 223.116 88.4311 223.733 89.4734Z" fill="#FF6582"/>
        <path d="M204.807 96.371C203.802 95.9338 202.707 95.7421 201.613 95.8117C200.519 95.8814 199.457 96.2104 198.516 96.7715C201.953 97.299 205.361 98.0069 208.725 98.8924C207.332 98.166 206.243 97.0278 204.807 96.371Z" fill="white"/>
        <path d="M198.496 96.7684L198.118 97.0424C198.246 96.9465 198.379 96.8566 198.516 96.7714L198.496 96.7684Z" fill="white"/>
        <path d="M209.896 98.3568C209.745 98.2071 209.595 98.0574 209.444 97.9076C208.279 96.6403 206.877 95.6142 205.316 94.8875C204.522 94.553 203.67 94.3771 202.808 94.3699C201.917 94.3907 201.037 94.5617 200.203 94.8756C199.811 95.015 199.427 95.1733 199.05 95.3418C198.618 95.5352 198.194 95.7414 197.772 95.9493C196.98 96.3394 196.198 96.7467 195.427 97.171C193.892 98.0155 192.405 98.9243 190.966 99.8977C190.22 100.402 189.49 100.924 188.774 101.462C188.109 101.961 187.458 102.474 186.819 103.001C186.683 103.113 186.479 102.931 186.616 102.819C186.784 102.68 186.954 102.541 187.124 102.404C187.605 102.018 188.093 101.638 188.589 101.267C189.493 100.587 190.421 99.9342 191.373 99.3073C192.852 98.332 194.382 97.4228 195.963 96.5798C196.753 96.1589 197.554 95.7556 198.366 95.3701C198.611 95.2537 198.859 95.1399 199.11 95.0321C199.683 94.7752 200.274 94.561 200.879 94.3913C201.746 94.1428 202.653 94.0635 203.55 94.1578C204.409 94.2674 205.242 94.5241 206.014 94.9166C207.544 95.7739 208.924 96.8743 210.1 98.1746C210.223 98.2977 210.02 98.48 209.896 98.3568Z" fill="white"/>
        <path d="M70.1012 63.4034C91.1895 56.6752 114.716 58.4564 134.695 67.9351C140.395 70.6255 145.778 73.9413 150.746 77.8214C152.151 78.9243 154.151 76.9515 152.731 75.8368C134.381 61.6042 111.325 54.8431 88.1951 56.9119C81.7961 57.4845 75.4787 58.7537 69.355 60.6969C67.6407 61.2438 68.3735 63.9546 70.1012 63.4034Z" fill="#3F3D56"/>
        <path d="M70.1012 82.1146C91.1895 75.3864 114.716 77.1677 134.695 86.6463C140.395 89.3367 145.778 92.6526 150.746 96.5326C152.151 97.6355 154.151 95.6627 152.731 94.548C134.381 80.3154 111.325 73.5543 88.1951 75.6231C81.7961 76.1957 75.4787 77.4649 69.355 79.4081C67.6407 79.955 68.3735 82.6658 70.1012 82.1146Z" fill="#3F3D56"/>
        <path d="M70.1012 100.826C91.1895 94.0976 114.716 95.8789 134.695 105.357C140.395 108.048 145.778 111.364 150.746 115.244C152.151 116.347 154.151 114.374 152.731 113.259C134.381 99.0267 111.325 92.2655 88.1951 94.3343C81.7961 94.9069 75.4787 96.1761 69.355 98.1194C67.6407 98.6663 68.3735 101.377 70.1012 100.826Z" fill="#3F3D56"/>
        <path d="M70.1012 119.537C91.1895 112.809 114.716 114.59 134.695 124.069C140.395 126.759 145.778 130.075 150.746 133.955C152.151 135.058 154.151 133.085 152.731 131.97C134.381 117.738 111.325 110.977 88.1951 113.046C81.7961 113.618 75.4787 114.887 69.355 116.831C67.6407 117.377 68.3735 120.088 70.1012 119.537Z" fill="#3F3D56"/>
        <path d="M70.1012 138.248C91.1895 131.52 114.716 133.301 134.695 142.78C140.395 145.47 145.778 148.786 150.746 152.666C152.151 153.769 154.151 151.796 152.731 150.682C134.381 136.449 111.325 129.688 88.1951 131.757C81.7961 132.329 75.4787 133.599 69.355 135.542C67.6407 136.089 68.3735 138.799 70.1012 138.248Z" fill="#3F3D56"/>
        <path d="M146.08 22.1621V67.0309C146.08 67.9226 144.521 68.669 142.421 68.8737C142.403 68.8726 142.385 68.8749 142.368 68.8803C142.018 68.9067 141.648 68.9266 141.271 68.9266C140.113 68.9478 138.961 68.7599 137.87 68.3717C137.771 68.3321 137.672 68.2859 137.572 68.2462C137.48 68.1934 137.381 68.1472 137.288 68.0943C136.767 67.7839 136.463 67.4206 136.463 67.0309V18.2915C139.769 19.3167 142.985 20.6113 146.08 22.1621Z" fill="#FDBB22"/>
        <path d="M166.238 32.5688H164.864V192.568H166.238V32.5688Z" fill="#E6E6E6"/>
        <path d="M315.66 142.1C316.635 142.01 317.578 141.709 318.423 141.216C319.268 140.723 319.995 140.051 320.552 139.246C321.109 138.442 321.483 137.525 321.648 136.561C321.813 135.597 321.764 134.608 321.505 133.664L350.024 120.351L367.194 92.5772L353.698 87.1284L342.115 109.509L312.799 129.046C311.242 129.586 309.938 130.678 309.133 132.115C308.328 133.552 308.079 135.235 308.431 136.844C308.784 138.453 309.715 139.876 311.047 140.845C312.379 141.814 314.021 142.26 315.66 142.1Z" fill="#FFB6B6"/>
        <path d="M377.785 65.9704C377.785 65.9704 381.147 67.0676 377.458 73.587C374.504 78.8063 360.117 108.87 354.246 114.773C354.863 115.763 355.134 116.931 355.016 118.091C354.897 119.252 354.395 120.341 353.59 121.185L340.034 110.428C339.775 106.516 342.364 106.128 343.899 106.26L347.017 95.2071L357.894 67.9419L375.37 65.1342L377.785 65.9704Z" fill="#89BF42"/>
        <path d="M378.078 14.867C378.719 12.2757 383.369 10.3623 375.404 6.74447C373.471 5.86646 373.551 2.84276 371.916 1.48863C370.281 0.134513 367.886 -0.493275 365.986 0.453203C364.289 1.2984 363.333 3.21113 363.129 5.09604C363.031 6.99315 363.25 8.89328 363.777 10.7184L363.623 10.944C366.778 13.3582 369.933 15.7724 373.088 18.1866C374.247 19.0738 375.763 20.0027 377.062 19.337C378.533 18.5835 377.681 16.4714 378.078 14.867Z" fill="#2F2E41"/>
    </g>
    <defs>
        <clipPath id="clip0_3239_3375">
            <rect width="442" height="337.938" fill="white"/>
        </clipPath>
    </defs>
</svg>
