<svg width="23" height="22" viewBox="0 0 23 22" fill="none" xmlns="http://www.w3.org/2000/svg">
<path fill-rule="evenodd" clip-rule="evenodd" d="M6.92887 0.066C8.10187 0.012 8.47587 0 11.4639 0C14.4519 0 14.8259 0.013 15.9979 0.066C17.1699 0.119 17.9699 0.306 18.6699 0.577C19.4029 0.854 20.0679 1.287 20.6179 1.847C21.1779 2.396 21.6099 3.06 21.8859 3.794C22.1579 4.494 22.3439 5.294 22.3979 6.464C22.4519 7.639 22.4639 8.013 22.4639 11C22.4639 13.988 22.4509 14.362 22.3979 15.535C22.3449 16.705 22.1579 17.505 21.8859 18.205C21.6099 18.9391 21.1771 19.6042 20.6179 20.154C20.0679 20.714 19.4029 21.146 18.6699 21.422C17.9699 21.694 17.1699 21.88 15.9999 21.934C14.8259 21.988 14.4519 22 11.4639 22C8.47587 22 8.10187 21.987 6.92887 21.934C5.75887 21.881 4.95887 21.694 4.25887 21.422C3.52479 21.146 2.85969 20.7133 2.30987 20.154C1.75025 19.6047 1.31718 18.9399 1.04087 18.206C0.769867 17.506 0.583867 16.706 0.529867 15.536C0.475867 14.361 0.463867 13.987 0.463867 11C0.463867 8.012 0.476867 7.638 0.529867 6.466C0.582867 5.294 0.769867 4.494 1.04087 3.794C1.31759 3.06008 1.75099 2.39531 2.31087 1.846C2.85991 1.2865 3.52434 0.853443 4.25787 0.577C4.95787 0.306 5.75787 0.12 6.92787 0.066H6.92887ZM15.9089 2.046C14.7489 1.993 14.4009 1.982 11.4639 1.982C8.52687 1.982 8.17887 1.993 7.01887 2.046C5.94587 2.095 5.36387 2.274 4.97587 2.425C4.46287 2.625 4.09587 2.862 3.71087 3.247C3.34591 3.60205 3.06505 4.03428 2.88887 4.512C2.73787 4.9 2.55887 5.482 2.50987 6.555C2.45687 7.715 2.44587 8.063 2.44587 11C2.44587 13.937 2.45687 14.285 2.50987 15.445C2.55887 16.518 2.73787 17.1 2.88887 17.488C3.06487 17.965 3.34587 18.398 3.71087 18.753C4.06587 19.118 4.49887 19.399 4.97587 19.575C5.36387 19.726 5.94587 19.905 7.01887 19.954C8.17887 20.007 8.52587 20.018 11.4639 20.018C14.4019 20.018 14.7489 20.007 15.9089 19.954C16.9819 19.905 17.5639 19.726 17.9519 19.575C18.4649 19.375 18.8319 19.138 19.2169 18.753C19.5819 18.398 19.8629 17.965 20.0389 17.488C20.1899 17.1 20.3689 16.518 20.4179 15.445C20.4709 14.285 20.4819 13.937 20.4819 11C20.4819 8.063 20.4709 7.715 20.4179 6.555C20.3689 5.482 20.1899 4.9 20.0389 4.512C19.8389 3.999 19.6019 3.632 19.2169 3.247C18.8618 2.88207 18.4296 2.60121 17.9519 2.425C17.5639 2.274 16.9819 2.095 15.9089 2.046ZM10.0589 14.391C10.8435 14.7176 11.7172 14.7617 12.5308 14.5157C13.3443 14.2697 14.0473 13.7489 14.5195 13.0422C14.9917 12.3356 15.2039 11.4869 15.1199 10.6411C15.0359 9.79534 14.6609 9.00497 14.0589 8.405C13.6751 8.02148 13.2111 7.72781 12.7002 7.54515C12.1893 7.36248 11.6443 7.29536 11.1044 7.34862C10.5644 7.40187 10.043 7.57418 9.57767 7.85313C9.11232 8.13208 8.71461 8.51074 8.41317 8.96185C8.11173 9.41296 7.91406 9.92529 7.83438 10.462C7.75471 10.9986 7.79502 11.5463 7.95241 12.0655C8.1098 12.5847 8.38035 13.0626 8.74459 13.4647C9.10883 13.8668 9.55769 14.1832 10.0589 14.391ZM7.46587 7.002C7.99089 6.47697 8.61419 6.0605 9.30017 5.77636C9.98614 5.49222 10.7214 5.34597 11.4639 5.34597C12.2064 5.34597 12.9416 5.49222 13.6276 5.77636C14.3135 6.0605 14.9368 6.47697 15.4619 7.002C15.9869 7.52702 16.4034 8.15032 16.6875 8.8363C16.9716 9.52228 17.1179 10.2575 17.1179 11C17.1179 11.7425 16.9716 12.4777 16.6875 13.1637C16.4034 13.8497 15.9869 14.473 15.4619 14.998C14.4015 16.0583 12.9634 16.654 11.4639 16.654C9.96433 16.654 8.5262 16.0583 7.46587 14.998C6.40553 13.9377 5.80984 12.4995 5.80984 11C5.80984 9.50046 6.40553 8.06234 7.46587 7.002ZM18.3719 6.188C18.502 6.06527 18.6061 5.91768 18.6782 5.75397C18.7502 5.59027 18.7887 5.41377 18.7913 5.23493C18.7939 5.05609 18.7606 4.87855 18.6933 4.71281C18.6261 4.54707 18.5263 4.39651 18.3998 4.27004C18.2734 4.14357 18.1228 4.04376 17.9571 3.97652C17.7913 3.90928 17.6138 3.87598 17.4349 3.87858C17.2561 3.88119 17.0796 3.91965 16.9159 3.9917C16.7522 4.06374 16.6046 4.1679 16.4819 4.298C16.2432 4.55103 16.1125 4.88712 16.1176 5.23493C16.1226 5.58274 16.2631 5.91488 16.509 6.16084C16.755 6.40681 17.0871 6.54723 17.4349 6.5523C17.7827 6.55737 18.1188 6.42669 18.3719 6.188Z" fill="white"/>
</svg>
