<svg width="127" height="50" viewBox="0 0 127 50" fill="none" xmlns="http://www.w3.org/2000/svg">
    <path d="M26 1.53729C13.0419 1.53729 2.53729 12.0199 2.53729 24.9509C2.53729 37.8818 13.0419 48.3644 26 48.3644C38.9581 48.3644 49.4627 37.8818 49.4627 24.9509C49.4627 12.0199 38.9581 1.53729 26 1.53729ZM26 1.53729L18.7573 24.1238M15.791 27.8657C15.791 27.8657 10.5638 12.0274 4.04963 16.663M15.7015 28.2239C15.7015 28.2239 7.81311 14.4697 3.34326 18.8444M2.75116 21.7761C2.75116 21.7761 5.21659 17.6788 15.0746 27.4179M2.53941 24.6331C7.19364 20.2584 15.1642 28.6716 15.1642 28.6716C9.58445 23.3108 2.70532 27.7674 2.70532 27.7674M2.87503 28.9316H18.0028M6.74597 38.3346C6.74597 38.3346 8.30322 27.0057 26.0895 43.7973C41.0582 29.7245 45.9701 36.7227 45.9701 36.7227M25.9998 43.6396C25.9998 43.6396 30.9029 19.5794 39.6904 17.1339C39.6904 17.1339 37.988 21.9642 34.7515 21.0138M34.535 21.3031C34.535 21.3031 35.5857 18.3575 34.3756 17.0659C34.3756 17.0659 32.0539 18.7147 34.0624 21.8909M30.9227 27.8679C30.9227 27.8679 31.0963 24.9205 28.6654 25.0509C28.6654 25.0509 28.3915 27.4374 30.8797 27.9644M32.6358 24.3364C32.6358 24.3364 35.4999 21.6854 38.1564 21.7372C38.1564 21.7372 36.6796 25.2903 32.421 24.7365M32.0146 25.5261C32.0146 25.5261 32.6518 21.8909 30.9942 21.414C30.9942 21.414 29.8629 22.977 31.6315 26.1942M31.3163 26.9856C31.3163 26.9856 34.3076 24.7098 35.9562 25.5315C35.9562 25.5315 34.5456 27.7573 31.2071 27.2249M18.546 25.5047H26.0178M18.7151 24.9838L21.5224 1.96316M18.9254 24.6331L24.0298 1.61867M18.546 27.3088H26.0178M18.4832 28.9488H25.9532M18.4832 30.8315H25.9532M18.4832 32.7126H25.9532M15.9414 28.9487V4.16019M18.546 37.4052V2.98779M26.1754 43.3716L26.0715 1.9764M18.8449 25.0456L26.0876 7.80026M39.0694 9.68664C39.0694 10.7285 38.2231 11.573 37.1791 11.573C36.1351 11.573 35.2887 10.7285 35.2887 9.68664C35.2887 8.64482 36.1351 7.80026 37.1791 7.80026C38.2231 7.80026 39.0694 8.64482 39.0694 9.68664ZM5.15285 33.6432C5.6308 33.8308 5.69518 33.8197 6.20893 33.9465C10.8775 35.0952 15.6228 33.1073 18.3473 29.4685C18.2077 29.4132 17.3538 29.2506 16.7183 29.2917C11.9173 29.5918 7.87915 30.0062 5.15285 33.6432Z" stroke="#FDBB22" stroke-width="1.4" stroke-miterlimit="10"/>
    <path d="M59.3906 33.5V17.5H62.7734V30.7109H69.6328V33.5H59.3906ZM77.2793 33.7344C76.0449 33.7344 74.9824 33.4844 74.0918 32.9844C73.2064 32.4792 72.5241 31.7656 72.0449 30.8437C71.5658 29.9167 71.3262 28.8203 71.3262 27.5547C71.3262 26.3203 71.5658 25.237 72.0449 24.3047C72.5241 23.3724 73.1986 22.6458 74.0684 22.125C74.9434 21.6042 75.9694 21.3438 77.1465 21.3438C77.9382 21.3438 78.6751 21.4714 79.3574 21.7266C80.0449 21.9766 80.6439 22.3542 81.1543 22.8594C81.6699 23.3646 82.071 24 82.3574 24.7656C82.6439 25.526 82.7871 26.4167 82.7871 27.4375V28.3516H72.6543V26.2891H79.6543C79.6543 25.8099 79.5501 25.3854 79.3418 25.0156C79.1335 24.6458 78.8444 24.3568 78.4746 24.1484C78.11 23.9349 77.6855 23.8281 77.2012 23.8281C76.696 23.8281 76.248 23.9453 75.8574 24.1797C75.472 24.4089 75.1699 24.7187 74.9512 25.1094C74.7324 25.4948 74.6204 25.9245 74.6152 26.3984V28.3594C74.6152 28.9531 74.7246 29.4661 74.9434 29.8984C75.1673 30.3307 75.4824 30.6641 75.8887 30.8984C76.2949 31.1328 76.7767 31.25 77.334 31.25C77.7038 31.25 78.0423 31.1979 78.3496 31.0938C78.6569 30.9896 78.9199 30.8333 79.1387 30.625C79.3574 30.4167 79.5241 30.1615 79.6387 29.8594L82.7168 30.0625C82.5605 30.8021 82.2402 31.4479 81.7559 32C81.2767 32.5469 80.6569 32.974 79.8965 33.2813C79.1413 33.5833 78.2689 33.7344 77.2793 33.7344ZM90.3809 33.7344C89.1517 33.7344 88.0944 33.474 87.209 32.9531C86.3288 32.4271 85.6517 31.6979 85.1777 30.7656C84.709 29.8333 84.4746 28.7604 84.4746 27.5469C84.4746 26.3177 84.7116 25.2396 85.1855 24.3125C85.6647 23.3802 86.3444 22.6536 87.2246 22.1328C88.1048 21.6068 89.1517 21.3438 90.3652 21.3438C91.4121 21.3438 92.3288 21.5339 93.1152 21.9141C93.9017 22.2943 94.5241 22.8281 94.9824 23.5156C95.4408 24.2031 95.6934 25.0104 95.7402 25.9375H92.5996C92.5111 25.3385 92.2767 24.8568 91.8965 24.4922C91.5215 24.1224 91.0293 23.9375 90.4199 23.9375C89.9043 23.9375 89.4538 24.0781 89.0684 24.3594C88.6882 24.6354 88.3913 25.0391 88.1777 25.5703C87.9642 26.1016 87.8574 26.7448 87.8574 27.5C87.8574 28.2656 87.9616 28.9167 88.1699 29.4531C88.3835 29.9896 88.6829 30.3984 89.0684 30.6797C89.4538 30.9609 89.9043 31.1016 90.4199 31.1016C90.8001 31.1016 91.1413 31.0234 91.4434 30.8672C91.7507 30.7109 92.0033 30.4844 92.2012 30.1875C92.4043 29.8854 92.5371 29.5234 92.5996 29.1016H95.7402C95.6882 30.0182 95.4382 30.8255 94.9902 31.5234C94.5475 32.2161 93.9355 32.7578 93.1543 33.1484C92.373 33.5391 91.4486 33.7344 90.3809 33.7344ZM104.254 21.5V24H97.0273V21.5H104.254ZM98.668 18.625H101.996V29.8125C101.996 30.1198 102.043 30.3594 102.137 30.5312C102.23 30.6979 102.361 30.8151 102.527 30.8828C102.699 30.9505 102.897 30.9844 103.121 30.9844C103.277 30.9844 103.434 30.9714 103.59 30.9453C103.746 30.9141 103.866 30.8906 103.949 30.875L104.473 33.3516C104.306 33.4036 104.072 33.4635 103.77 33.5313C103.467 33.6042 103.1 33.6484 102.668 33.6641C101.866 33.6953 101.163 33.5885 100.559 33.3437C99.9596 33.099 99.4935 32.7187 99.1602 32.2031C98.8268 31.6875 98.6628 31.0365 98.668 30.25V18.625ZM106.422 33.5V21.5H109.75V33.5H106.422ZM108.094 19.9531C107.599 19.9531 107.174 19.7891 106.82 19.4609C106.471 19.1276 106.297 18.7292 106.297 18.2656C106.297 17.8073 106.471 17.4141 106.82 17.0859C107.174 16.7526 107.599 16.5859 108.094 16.5859C108.589 16.5859 109.01 16.7526 109.359 17.0859C109.714 17.4141 109.891 17.8073 109.891 18.2656C109.891 18.7292 109.714 19.1276 109.359 19.4609C109.01 19.7891 108.589 19.9531 108.094 19.9531ZM117.838 33.7344C116.624 33.7344 115.575 33.4766 114.689 32.9609C113.809 32.4401 113.13 31.7161 112.65 30.7891C112.171 29.8568 111.932 28.776 111.932 27.5469C111.932 26.3073 112.171 25.224 112.65 24.2969C113.13 23.3646 113.809 22.6406 114.689 22.125C115.575 21.6042 116.624 21.3438 117.838 21.3438C119.051 21.3438 120.098 21.6042 120.979 22.125C121.864 22.6406 122.546 23.3646 123.025 24.2969C123.505 25.224 123.744 26.3073 123.744 27.5469C123.744 28.776 123.505 29.8568 123.025 30.7891C122.546 31.7161 121.864 32.4401 120.979 32.9609C120.098 33.4766 119.051 33.7344 117.838 33.7344ZM117.854 31.1562C118.406 31.1562 118.867 31 119.236 30.6875C119.606 30.3698 119.885 29.9375 120.072 29.3906C120.265 28.8437 120.361 28.2214 120.361 27.5234C120.361 26.8255 120.265 26.2031 120.072 25.6562C119.885 25.1094 119.606 24.6771 119.236 24.3594C118.867 24.0417 118.406 23.8828 117.854 23.8828C117.296 23.8828 116.827 24.0417 116.447 24.3594C116.072 24.6771 115.788 25.1094 115.596 25.6562C115.408 26.2031 115.314 26.8255 115.314 27.5234C115.314 28.2214 115.408 28.8437 115.596 29.3906C115.788 29.9375 116.072 30.3698 116.447 30.6875C116.827 31 117.296 31.1562 117.854 31.1562Z" fill="#FDBB22"/>
</svg>
