<svg width="32" height="32" viewBox="0 0 32 32" fill="none" xmlns="http://www.w3.org/2000/svg">
<path d="M3.72707 24.6366C3.72707 24.6366 4.84632 17.1871 16.2173 27.9222M28.9491 23.5859C28.9491 23.5859 25.4209 19.0875 15.8512 28.0844M1 18.2207C1 18.2207 6.00229 14.8848 9.56947 18.312M1.28376 13.1238C1.28376 13.1238 3.26705 11.3125 9.56941 17.5389M9.56941 17.5389C9.56941 17.5389 4.40571 9.03989 1.54807 11.8367M9.56941 17.5389C9.56941 17.5389 6.22763 7.63406 2.06307 10.5976M9.56947 17.958C9.56947 17.958 3.97551 13.2334 1 16.0303M15.9999 27.9793C15.9999 27.9793 19.1345 12.5973 24.7525 11.0339C24.7525 11.0339 23.6642 14.1219 21.595 13.5144M21.4565 13.6994C21.4565 13.6994 22.1283 11.8162 21.3547 10.9905C21.3547 10.9905 19.8704 12.0446 21.1544 14.0751M20.2423 15.6385C20.2423 15.6385 22.0734 13.9438 23.7717 13.9769C23.7717 13.9769 22.8276 16.2484 20.105 15.8944M19.8452 16.3991C19.8452 16.3991 20.2526 14.0751 19.1929 13.7702C19.1929 13.7702 18.4696 14.7695 19.6003 16.8263M19.3989 17.3322C19.3989 17.3322 21.3112 15.8772 22.3652 16.4026C22.3652 16.4026 21.4634 17.8255 19.329 17.4852M19.1472 17.8963C19.1472 17.8963 19.2582 16.012 17.704 16.0954C17.704 16.0954 17.5289 17.6211 19.1197 17.958M1.21972 18.5873H11.2346M16.0114 16.3854H11.2346L13.5818 1.1142M11.2346 17.5389H16.0114M11.1944 18.5873H15.9701M11.1944 19.791H15.9701M11.1944 20.9935H15.9701M16.1121 27.808L16.0457 1M15.01 1.1142L11.4257 16.0919L16.056 5.06677M11.4257 16.2895L16.056 1.84967M11.2346 23.9936V1.99014M9.56945 18.5873V2.62282M31 16.0314C31 24.2983 24.2843 31 16 31C7.71573 31 1 24.2983 1 16.0314C1 7.76448 7.71573 1.06281 16 1.06281C24.2843 1.06281 31 7.76448 31 16.0314ZM24.3555 6.27275C24.3555 6.9388 23.8144 7.47874 23.1469 7.47874C22.4795 7.47874 21.9384 6.9388 21.9384 6.27275C21.9384 5.60671 22.4795 5.06677 23.1469 5.06677C23.8144 5.06677 24.3555 5.60671 24.3555 6.27275ZM2.32861 21.5885C2.63417 21.7084 2.93401 21.8398 3.26246 21.9209C6.24712 22.6552 9.36569 21.2459 11.1075 18.9196C11.0182 18.8842 10.4723 18.7803 10.0661 18.8065C6.99672 18.9984 4.07157 19.2633 2.32861 21.5885Z" stroke="#FDBB22" stroke-miterlimit="10"/>
</svg>
