<svg xmlns="http://www.w3.org/2000/svg" width="58" height="58" viewBox="0 0 58 58" fill="none">
  <path d="M6.09052 45.1217C6.09052 45.1217 8.17978 31.216 29.4057 51.2549" stroke="#FDBB22" stroke-width="1.6" stroke-miterlimit="10"/>
  <path d="M53.1717 43.1604C53.1717 43.1604 46.5856 34.7633 28.7222 51.5576" stroke="#FDBB22" stroke-width="1.6" stroke-miterlimit="10"/>
  <path d="M1 33.1453C1 33.1453 10.3376 26.9183 16.9963 33.3158" stroke="#FDBB22" stroke-width="1.6" stroke-miterlimit="10"/>
  <path d="M1.52969 23.6311C1.52969 23.6311 5.23184 20.2501 16.9962 31.8726" stroke="#FDBB22" stroke-width="1.6" stroke-miterlimit="10"/>
  <path d="M16.9963 32.655C16.9963 32.655 6.55428 23.8358 1 29.0565" stroke="#FDBB22" stroke-width="1.6" stroke-miterlimit="10"/>
  <path d="M16.9961 31.8726C16.9961 31.8726 7.35732 16.0078 2.02307 21.2286" stroke="#FDBB22" stroke-width="1.6" stroke-miterlimit="10"/>
  <path d="M28.9998 51.3614C28.9998 51.3614 34.8511 22.6483 45.338 19.7299C45.338 19.7299 43.3064 25.4942 39.444 24.3601" stroke="#FDBB22" stroke-width="1.6" stroke-miterlimit="10"/>
  <path d="M39.1855 24.7055C39.1855 24.7055 40.4395 21.1902 38.9954 19.6489C38.9954 19.6489 36.2247 21.6166 38.6216 25.4069" stroke="#FDBB22" stroke-width="1.6" stroke-miterlimit="10"/>
  <path d="M36.919 28.3253C36.919 28.3253 40.337 25.1617 43.5072 25.2236C43.5072 25.2236 41.7448 29.4637 36.6627 28.8028" stroke="#FDBB22" stroke-width="1.6" stroke-miterlimit="10"/>
  <path d="M36.1777 29.745C36.1777 29.745 36.9382 25.4068 34.9601 24.8376C34.9601 24.8376 33.6099 26.703 35.7206 30.5423" stroke="#FDBB22" stroke-width="1.6" stroke-miterlimit="10"/>
  <path d="M35.3445 31.4867C35.3445 31.4867 38.9142 28.7708 40.8817 29.7514C40.8817 29.7514 39.1984 32.4076 35.2142 31.7724" stroke="#FDBB22" stroke-width="1.6" stroke-miterlimit="10"/>
  <path d="M34.8747 32.5398C34.8747 32.5398 35.0819 29.0224 32.1809 29.178C32.1809 29.178 31.854 32.0261 34.8235 32.6549" stroke="#FDBB22" stroke-width="1.6" stroke-miterlimit="10"/>
  <path d="M29 56.9999C44.464 56.9999 57 44.4902 57 29.0586C57 13.627 44.464 1.11719 29 1.11719C13.536 1.11719 1 13.627 1 29.0586C1 44.4902 13.536 56.9999 29 56.9999Z" stroke="#FDBB22" stroke-width="1.6" stroke-miterlimit="10"/>
  <path d="M1.41016 33.8296H20.1046" stroke="#FDBB22" stroke-width="1.6" stroke-miterlimit="10"/>
  <path d="M20.1045 29.7195H29.0213" stroke="#FDBB22" stroke-width="1.6" stroke-miterlimit="10"/>
  <path d="M20.1045 31.8726H29.0213" stroke="#FDBB22" stroke-width="1.6" stroke-miterlimit="10"/>
  <path d="M20.0296 33.8296H28.9443" stroke="#FDBB22" stroke-width="1.6" stroke-miterlimit="10"/>
  <path d="M20.0296 36.0764H28.9443" stroke="#FDBB22" stroke-width="1.6" stroke-miterlimit="10"/>
  <path d="M20.0296 38.3213H28.9443" stroke="#FDBB22" stroke-width="1.6" stroke-miterlimit="10"/>
  <path d="M29.2094 51.0416L29.0854 1" stroke="#FDBB22" stroke-width="1.6" stroke-miterlimit="10"/>
  <path d="M20.1045 29.7194L24.486 1.21313" stroke="#FDBB22" stroke-width="1.6" stroke-miterlimit="10"/>
  <path d="M20.4613 29.1716L27.1521 1.21313" stroke="#FDBB22" stroke-width="1.6" stroke-miterlimit="10"/>
  <path d="M20.4613 29.5404L29.1046 2.58606" stroke="#FDBB22" stroke-width="1.6" stroke-miterlimit="10"/>
  <path d="M20.4613 29.1716L29.1046 8.59131" stroke="#FDBB22" stroke-width="1.16794" stroke-miterlimit="10"/>
  <path d="M20.1045 43.9215V2.84827" stroke="#FDBB22" stroke-width="1.6" stroke-miterlimit="10"/>
  <path d="M16.9963 33.8296V4.0293" stroke="#FDBB22" stroke-width="1.6" stroke-miterlimit="10"/>
  <path d="M16.9961 31.8726C16.9961 31.8726 10.7582 13.3836 2.98438 18.9156" stroke="#FDBB22" stroke-width="1.6" stroke-miterlimit="10"/>
  <path d="M42.3409 13.0936C43.5868 13.0936 44.5968 12.0858 44.5968 10.8425C44.5968 9.59919 43.5868 8.59131 42.3409 8.59131C41.095 8.59131 40.0851 9.59919 40.0851 10.8425C40.0851 12.0858 41.095 13.0936 42.3409 13.0936Z" stroke="#FDBB22" stroke-width="1.6" stroke-miterlimit="10"/>
  <path d="M3.48007 39.4319C4.05045 39.6557 4.61016 39.9008 5.22326 40.0522C10.7946 41.4229 16.616 38.7923 19.8673 34.4499C19.7007 34.3838 18.6817 34.1898 17.9233 34.2388C12.1939 34.5969 6.7336 35.0915 3.48007 39.4319Z" stroke="#FDBB22" stroke-width="1.6" stroke-miterlimit="10"/>
</svg>