<svg width="342" height="277" viewBox="0 0 342 277" fill="none" xmlns="http://www.w3.org/2000/svg">
<g clip-path="url(#clip0_3305_4995)">
<path d="M162.771 270.099C207.561 270.099 243.871 268.798 243.871 267.193C243.871 265.588 207.561 264.287 162.771 264.287C117.98 264.287 81.6697 265.588 81.6697 267.193C81.6697 268.798 117.98 270.099 162.771 270.099Z" fill="#415C6F"/>
<path d="M124.965 137.337C140.992 137.337 153.984 124.301 153.984 108.221C153.984 92.14 140.992 79.104 124.965 79.104C108.938 79.104 95.9453 92.14 95.9453 108.221C95.9453 124.301 108.938 137.337 124.965 137.337Z" fill="#FDBB22"/>
<path d="M90.774 259.57C104.282 259.57 115.232 258.557 115.232 257.308C115.232 256.058 104.282 255.046 90.774 255.046C77.2662 255.046 66.3159 256.058 66.3159 257.308C66.3159 258.557 77.2662 259.57 90.774 259.57Z" fill="#415C6F"/>
<path d="M135.331 267.392C135.331 267.392 155.631 213.078 144.44 179.654C133.249 146.23 124.401 147.536 124.401 147.536C124.401 147.536 109.306 143.619 90.5678 155.108C71.8297 166.598 66.8849 169.992 56.2145 165.292C45.5442 160.592 43.4621 153.28 17.4369 154.064C17.4369 154.064 31.2303 146.491 44.7634 153.28C58.2965 160.07 67.4054 163.725 81.1987 153.28C94.9921 142.835 113.991 129.257 132.468 137.352C132.468 137.352 118.935 124.034 114.511 124.034C110.087 124.034 89.2666 121.945 82.5 114.895C82.5 114.895 72.8707 108.106 55.694 124.818C38.5174 141.53 42.6814 141.53 27.3265 140.224C11.9716 138.919 0 131.346 0 131.346C0 131.346 17.9574 138.657 28.888 135.002C39.8186 131.346 49.1877 117.506 58.817 112.806C68.4464 108.106 74.1719 101.839 87.1845 108.628C87.1845 108.628 81.7193 86.1713 71.3092 87.9992C60.8991 89.8271 76.254 82.7767 76.254 82.7767C76.254 82.7767 73.3912 44.6524 67.9259 42.0412C62.4606 39.4299 65.8439 32.6407 55.694 31.3351C55.694 31.3351 68.1861 29.7683 70.5284 38.3854C72.8707 47.0025 89.0063 93.4828 89.0063 93.4828C89.0063 93.4828 98.8959 113.328 109.827 108.628C120.757 103.928 105.662 77.5542 105.662 77.5542L86.9243 68.937C86.9243 68.937 100.978 68.4148 109.566 76.5097C118.155 84.6045 118.675 110.717 118.675 110.717C118.675 110.717 140.276 113.851 145.481 125.601C145.481 125.601 148.864 115.156 142.358 108.889C140.731 107.322 139.024 104.597 137.377 101.39C131.079 89.126 128.942 75.1461 130.923 61.4938C131.893 54.813 132.49 48.2807 131.427 46.7414C129.085 43.3468 119.196 22.4568 118.415 16.9732C117.634 11.4896 119.196 6.10352e-05 119.196 6.10352e-05C119.196 6.10352e-05 119.456 14.1008 122.579 18.5399C125.702 22.9791 134.55 44.9136 134.55 44.9136C134.55 44.9136 134.55 72.5928 141.838 86.1713C149.125 99.7498 163.178 114.895 162.397 124.818V130.563C162.397 130.563 178.013 115.678 176.972 110.717C175.931 105.756 174.629 94.005 164.74 86.9547C154.85 79.9043 148.344 68.6759 155.371 52.4862C162.397 36.2964 162.397 33.4241 162.397 33.4241L157.713 53.5307C157.713 53.5307 155.11 71.5483 162.397 77.8153C169.685 84.0823 179.314 95.5718 179.314 95.5718L177.232 57.9698L183.998 72.8539C183.998 72.8539 198.573 54.0529 215.749 47.7859C232.926 41.5189 243.596 19.5844 243.596 19.5844L258.17 8.09492L246.199 22.4568C246.199 22.4568 242.555 39.4299 221.995 51.4417C201.435 63.4534 188.162 81.2099 187.382 92.1772C186.601 103.144 185.82 112.806 185.82 112.806C185.82 112.806 224.338 111.5 232.926 94.5273C241.514 77.5542 242.295 43.8691 250.623 38.3854C258.951 32.9018 274.566 26.1126 274.566 26.1126L257.129 40.4744C257.129 40.4744 253.486 52.2251 254.267 60.5811C255.047 68.937 248.541 76.7708 248.541 76.7708L243.596 91.3938L238.131 103.928C238.131 103.928 260.513 104.45 272.224 117.767C283.935 131.085 313.084 135.002 313.084 135.002L296.688 139.441C296.688 139.441 281.073 134.218 266.238 124.557C251.404 114.895 252.965 106.278 234.487 115.94C216.01 125.601 190.765 133.696 190.765 133.696C190.765 133.696 205.339 126.907 231.625 143.358C257.91 159.809 218.612 140.485 206.901 146.752C195.189 153.019 189.724 145.186 185.039 160.853C180.355 176.521 171.767 219.345 181.656 243.368L191.546 267.392H135.331Z" fill="#59410C"/>
<path opacity="0.1" d="M233.321 94.5272C226.343 108.317 199.611 111.765 189.829 112.573C189.554 116.113 189.374 118.352 189.374 118.352C189.374 118.352 227.891 117.046 236.479 100.073C245.068 83.1 245.848 49.4148 254.176 43.9312C255.06 43.3497 256.025 42.7534 257.045 42.1521C257.331 41.0982 257.524 40.4744 257.524 40.4744L274.961 26.1125C274.961 26.1125 259.346 32.9017 251.018 38.3854C242.69 43.869 241.909 77.5541 233.321 94.5272Z" fill="black"/>
<path opacity="0.1" d="M188.44 68.1468C188.383 74.5759 187.552 78.3997 187.552 78.3997C187.552 78.3997 202.12 59.6067 219.292 53.3358C220.307 52.6916 221.336 52.0573 222.39 51.4416C242.95 39.4298 246.594 22.4567 246.594 22.4567L258.565 8.09485L243.991 19.5844C243.991 19.5844 233.321 41.5189 216.144 47.7858C204.436 52.0577 193.938 62.1517 188.44 68.1468Z" fill="black"/>
<path opacity="0.1" d="M165.951 130.364V136.108C165.951 136.108 181.566 121.224 180.525 116.263C179.729 112.469 178.776 104.705 173.95 98.1081C176.125 103.093 176.787 107.956 177.366 110.717C178.113 114.275 170.295 122.935 165.811 127.55C165.969 128.479 166.015 129.423 165.951 130.364Z" fill="black"/>
<path opacity="0.1" d="M145.005 90.9402C145.128 91.2048 145.256 91.4653 145.391 91.7171C149.382 99.1536 155.399 107.058 159.9 114.32C156.262 107.129 149.93 98.9061 145.005 90.9402Z" fill="black"/>
<path opacity="0.1" d="M157.692 79.8232C155.594 74.6637 155.248 68.5244 157.659 61.3304C157.629 58.7232 157.779 56.117 158.108 53.5307L162.206 35.9419C161.45 38.4783 159.722 43.3716 155.766 52.4861C150.757 64.0248 152.627 73.0413 157.692 79.8232Z" fill="black"/>
<path opacity="0.1" d="M272.619 117.767C264.497 108.532 251.245 105.451 243.884 104.429L241.684 109.474C241.684 109.474 264.066 109.996 275.777 123.313C282.272 130.698 294.127 135.191 303.401 137.73L313.479 135.002C313.479 135.002 284.33 131.085 272.619 117.767Z" fill="black"/>
<path opacity="0.1" d="M113.38 114.174C124.31 109.474 109.216 83.1 109.216 83.1L108.803 82.9101C112.566 90.8765 118.024 105.273 110.221 108.628C102.92 111.767 96.0846 103.957 92.3494 98.4228C92.485 98.8142 92.5594 99.0286 92.5594 99.0286C92.5594 99.0286 102.449 118.874 113.38 114.174Z" fill="black"/>
<path opacity="0.1" d="M149.034 131.147C149.034 131.147 152.328 120.961 146.141 114.671C147.658 120.089 145.876 125.601 145.876 125.601C141.849 116.511 128.014 112.579 121.954 111.263C122.189 114.29 122.228 116.263 122.228 116.263C122.228 116.263 143.829 119.396 149.034 131.147Z" fill="black"/>
<path opacity="0.1" d="M162.206 35.9418C162.792 33.9729 162.792 33.424 162.792 33.424L162.206 35.9418Z" fill="black"/>
<path opacity="0.1" d="M32.2833 140.597C32.3358 140.58 32.3891 140.565 32.4413 140.547C43.3719 136.892 52.741 123.052 62.3703 118.352C71.9997 113.652 77.7252 107.385 90.7378 114.174C90.7378 114.174 88.4613 104.824 84.0497 98.6816C85.5109 101.888 86.6919 105.216 87.5793 108.628C74.5667 101.839 68.8411 108.106 59.2118 112.806C49.5825 117.506 40.2134 131.346 29.2828 135.002C18.3522 138.657 0.394775 131.346 0.394775 131.346C0.394775 131.346 12.3664 138.918 27.7213 140.224C29.4778 140.373 30.9765 140.505 32.2833 140.597Z" fill="black"/>
<path opacity="0.1" d="M140.786 267.392C145.554 252.725 157.022 212.167 147.993 185.2C144.094 173.554 140.48 166.128 137.425 161.39C139.71 165.875 142.208 171.807 144.835 179.654C156.026 213.078 135.726 267.392 135.726 267.392H140.786Z" fill="black"/>
<path opacity="0.1" d="M39.1499 156.164C42.3406 156.489 45.4464 157.391 48.3168 158.826C59.0048 164.188 66.9349 167.589 76.5908 163.639C78.7904 162.473 81.2508 161.031 84.0882 159.313C84.3094 159.151 84.5285 158.996 84.7521 158.826C98.5455 148.381 117.544 134.803 136.022 142.898C136.022 142.898 132.287 139.224 128.101 135.735C111.165 131.567 94.204 143.731 81.5937 153.28C67.8002 163.725 58.6915 160.07 45.1583 153.28C31.6251 146.491 17.8318 154.064 17.8318 154.064C27.8873 153.761 34.3667 154.667 39.1499 156.164Z" fill="black"/>
<path opacity="0.1" d="M65.5664 39.5062C65.8633 40.0078 66.223 40.4691 66.6367 40.879C66.3328 40.3822 65.9738 39.9217 65.5664 39.5062Z" fill="black"/>
<path opacity="0.1" d="M113.12 82.0555C113.522 82.4372 113.899 82.8449 114.248 83.276C113.108 80.5263 111.7 78.1485 109.961 76.5096C101.373 68.4147 87.3191 68.937 87.3191 68.937L104.944 77.0421C107.964 78.1725 110.739 79.8745 113.12 82.0555Z" fill="black"/>
<path opacity="0.1" d="M131.822 46.7414C132.884 48.2806 132.288 54.8129 131.318 61.4937C129.337 75.1461 131.473 89.1259 137.771 101.39C138.601 103.036 139.527 104.631 140.545 106.166C134.547 94.0885 132.537 80.4076 134.477 67.0396C135.446 60.3588 136.043 53.8265 134.981 52.2872C132.639 48.8926 122.749 28.0026 121.968 22.519C121.734 20.3916 121.68 18.2482 121.805 16.1116C119.783 10.3563 119.59 0 119.59 0C119.59 0 118.029 11.4895 118.81 16.9731C119.59 22.4567 129.48 43.3468 131.822 46.7414Z" fill="black"/>
<path opacity="0.1" d="M156.238 10.6418C156.134 10.1257 155.975 9.62211 155.766 9.1394C155.766 9.1394 155.966 9.70297 156.238 10.6418Z" fill="black"/>
<path opacity="0.1" d="M64.3157 36.9405C66.6094 37.2222 69.2477 37.9283 71.2602 39.5659C71.129 39.1204 71.0144 38.721 70.9233 38.3854C68.581 29.7683 56.0889 31.335 56.0889 31.335C61.7342 32.0612 63.1924 34.4839 64.3157 36.9405Z" fill="black"/>
<path d="M129.001 256.235C130.856 263.117 137.212 267.38 137.212 267.38C137.212 267.38 140.559 260.484 138.704 253.601C136.848 246.719 130.492 242.456 130.492 242.456C130.492 242.456 127.145 249.352 129.001 256.235Z" fill="#415C6F"/>
<path d="M131.727 254.756C136.819 259.729 137.441 267.374 137.441 267.374C137.441 267.374 129.807 266.956 124.715 261.983C119.624 257.009 119.002 249.364 119.002 249.364C119.002 249.364 126.635 249.783 131.727 254.756Z" fill="#A4E64F"/>
<path d="M114.851 68.1533C114.408 75.2692 109.033 80.7237 109.033 80.7237C109.033 80.7237 104.376 74.6409 104.818 67.525C105.261 60.4091 110.636 54.9547 110.636 54.9547C110.636 54.9547 115.294 61.0374 114.851 68.1533Z" fill="#92CC46"/>
<path d="M58.8209 23.1679C64.8319 26.9703 67.0244 34.3185 67.0244 34.3185C67.0244 34.3185 59.4711 35.5018 53.4601 31.6994C47.4491 27.897 45.2566 20.5488 45.2566 20.5488C45.2566 20.5488 52.8099 19.3654 58.8209 23.1679Z" fill="#92CC46"/>
<path d="M45.3976 109.921C51.4086 113.723 53.601 121.072 53.601 121.072C53.601 121.072 46.0477 122.255 40.0367 118.452C34.0257 114.65 31.8333 107.302 31.8333 107.302C31.8333 107.302 39.3866 106.119 45.3976 109.921Z" fill="#92CC46"/>
<path d="M77.3771 143.196C83.3881 146.998 85.5805 154.347 85.5805 154.347C85.5805 154.347 78.0272 155.53 72.0162 151.728C66.0052 147.925 63.8127 140.577 63.8127 140.577C63.8127 140.577 71.366 139.394 77.3771 143.196Z" fill="#92CC46"/>
<path d="M167.599 35.8505C165.786 42.7443 159.457 47.0464 159.457 47.0464C159.457 47.0464 156.066 40.1714 157.879 33.2776C159.692 26.3837 166.021 22.0816 166.021 22.0816C166.021 22.0816 169.411 28.9566 167.599 35.8505Z" fill="#92CC46"/>
<path d="M224.781 41.2258C222.651 48.0275 216.129 52.0293 216.129 52.0293C216.129 52.0293 213.061 45.0035 215.192 38.2017C217.322 31.4 223.844 27.3982 223.844 27.3982C223.844 27.3982 226.912 34.424 224.781 41.2258Z" fill="#92CC46"/>
<path d="M286.586 116.926C282.727 122.912 275.378 125.026 275.378 125.026C275.378 125.026 274.287 117.434 278.146 111.448C282.006 105.461 289.354 103.347 289.354 103.347C289.354 103.347 290.446 110.939 286.586 116.926Z" fill="#92CC46"/>
<path d="M259.727 268.621L249.505 253.387C249.505 253.387 264.986 258.809 263.229 268.621H259.727Z" fill="#E5E5E5"/>
<path d="M153.767 268.722L153.379 268.715C153.529 264.386 153.989 260.073 154.756 255.81C156.434 246.683 159.225 240.689 163.05 237.995L163.273 238.313C154.337 244.608 153.772 268.482 153.767 268.722Z" fill="#E5E5E5"/>
<path d="M158.618 268.629L158.23 268.622C158.238 268.19 158.481 258.028 162.468 255.219L162.691 255.538C158.864 258.234 158.62 268.526 158.618 268.629Z" fill="#E5E5E5"/>
<path d="M165.48 238.349C166.552 238.349 167.421 237.477 167.421 236.402C167.421 235.327 166.552 234.455 165.48 234.455C164.409 234.455 163.54 235.327 163.54 236.402C163.54 237.477 164.409 238.349 165.48 238.349Z" fill="#A4E64F"/>
<path d="M164.519 255.091C165.591 255.091 166.46 254.219 166.46 253.144C166.46 252.069 165.591 251.197 164.519 251.197C163.448 251.197 162.579 252.069 162.579 253.144C162.579 254.219 163.448 255.091 164.519 255.091Z" fill="#A4E64F"/>
<path d="M157.713 239.516C158.078 241.853 157.128 243.943 157.128 243.943C157.128 243.943 155.586 242.244 155.221 239.907C154.857 237.57 155.807 235.48 155.807 235.48C155.807 235.48 157.349 237.179 157.713 239.516Z" fill="#E5E5E5"/>
<path d="M164.056 245.191C161.826 245.959 159.609 245.384 159.609 245.384C159.609 245.384 161.007 243.565 163.237 242.797C165.467 242.03 167.684 242.605 167.684 242.605C167.684 242.605 166.286 244.424 164.056 245.191Z" fill="#E5E5E5"/>
<path d="M164.127 260.018C163.118 260.336 162.043 260.383 161.01 260.153C161.666 259.316 162.549 258.686 163.554 258.34C164.558 257.995 165.64 257.948 166.67 258.205C165.996 259.023 165.119 259.648 164.127 260.018Z" fill="#E5E5E5"/>
<path d="M270.735 269.011H145.198C145.147 269.011 145.097 268.99 145.061 268.954C145.025 268.917 145.004 268.868 145.004 268.816C145.004 268.764 145.025 268.715 145.061 268.678C145.097 268.642 145.147 268.621 145.198 268.621H270.735C270.786 268.621 270.836 268.642 270.872 268.678C270.908 268.715 270.929 268.764 270.929 268.816C270.929 268.868 270.908 268.917 270.872 268.954C270.836 268.99 270.786 269.011 270.735 269.011Z" fill="#CBCBCB"/>
<path d="M224.516 277.985L222.928 282.131L206.237 277.96L208.58 271.842L224.516 277.985Z" fill="#FFB7B7"/>
<path d="M228.925 278.472L223.807 291.838L223.638 291.773C222.263 291.243 221.154 290.187 220.556 288.836C219.957 287.486 219.917 285.952 220.445 284.572L220.445 284.572L223.572 276.408L228.925 278.472Z" fill="#2F2E41"/>
<path d="M199.153 226.082L191.879 226.765L191.518 248.48C191.614 249.544 192.122 250.528 192.933 251.222C193.744 251.915 194.793 252.262 195.855 252.188L200.467 251.869L199.153 226.082Z" fill="#E5E5E5"/>
<path d="M224.796 225.013L219.819 224.949L219.524 250.751C220.624 250.788 221.72 250.597 222.743 250.19C223.766 249.783 224.694 249.169 225.47 248.386C226.246 247.604 226.853 246.669 227.253 245.64C227.653 244.612 227.838 243.511 227.795 242.408L224.796 225.013Z" fill="#E5E5E5"/>
<path d="M195.917 259.917C195.8 260.665 195.628 261.404 195.405 262.128C195.154 262.837 194.767 263.492 194.537 264.208C193.805 266.49 194.82 269.034 196.44 270.796C197.846 272.317 199.66 273.398 201.664 273.908C203.126 274.277 204.646 274.33 206.153 274.381C210.325 274.523 214.604 274.65 218.558 273.305C219.807 272.869 221.013 272.319 222.162 271.662C222.524 271.489 222.844 271.236 223.097 270.923C223.398 270.492 223.437 269.934 223.434 269.407C223.426 267.633 223.067 265.867 223.152 264.095C223.199 263.113 223.382 262.132 223.292 261.153C223.167 260.041 222.703 258.996 221.963 258.159C221.223 257.322 220.244 256.735 219.159 256.478C218.037 256.237 216.874 256.368 215.732 256.479C212.768 256.764 209.792 256.898 206.815 256.879C203.773 256.859 200.749 256.393 197.722 256.344C196.827 256.33 196.845 256.607 196.56 257.476C196.298 258.276 196.083 259.091 195.917 259.917Z" fill="#6D9935"/>
<path d="M184.022 258.475C183.204 258.269 182.361 258.179 181.518 258.208C180.632 258.257 179.767 258.495 178.98 258.905C178.193 259.316 177.502 259.89 176.953 260.589C176.404 261.288 176.01 262.097 175.797 262.961C175.584 263.824 175.556 264.724 175.716 265.599C175.92 266.548 176.254 267.463 176.708 268.32C177.372 269.672 178.169 271.021 179.398 271.887C180.117 272.394 180.949 272.71 181.772 273.021L188.246 275.468C189.199 275.828 190.151 276.188 191.113 276.522C195.946 278.198 200.984 279.203 206.088 279.509C207.642 279.602 209.221 279.628 210.737 279.273C211.097 279.188 211.481 279.063 211.689 278.757C211.813 278.541 211.886 278.3 211.902 278.052L212.301 275.253C212.357 274.859 212.411 274.444 212.267 274.073C212.084 273.603 211.627 273.307 211.191 273.056C206.934 270.603 201.964 269.25 198.381 265.883C197.538 265.09 196.832 263.834 195.807 263.296C194.645 262.685 193.277 262.337 192.075 261.774C189.45 260.544 186.868 259.131 184.022 258.475Z" fill="#6D9935"/>
<path opacity="0.1" d="M190.486 262.247C192.774 262.967 202.436 267.952 204.092 269.692C203.87 269.772 196.338 265.537 196.112 265.469C194.058 264.851 191.992 264.228 190.042 263.323C189.649 263.14 187.492 262.284 187.59 261.788C187.7 261.227 190.079 262.12 190.486 262.247Z" fill="black"/>
<path d="M204.297 218.783L198.135 223.477C198.135 223.477 191.634 223.681 191.853 227.851C192.073 232.022 194.675 251.765 194.675 251.765L195.24 258.559L205.949 261.62C211.735 263.275 217.848 263.406 223.7 262.002L222.427 255.187C222.427 255.187 227.58 224.234 224.476 222.872C221.371 221.509 219.431 221.898 219.431 221.898L215.54 218.491L204.297 218.783Z" fill="#E5E5E5"/>
<path d="M222.535 211.201C222.535 217.295 216.92 216.373 209.992 216.373C203.065 216.373 197.449 217.295 197.449 211.201C197.449 205.108 200.192 194.306 209.992 194.306C220.13 194.306 222.535 205.108 222.535 211.201Z" fill="#2F2E41"/>
<path d="M216.513 213.266C219.809 209.959 219.809 204.597 216.513 201.29C213.216 197.983 207.872 197.983 204.576 201.29C201.28 204.597 201.28 209.959 204.576 213.266C207.872 216.574 213.216 216.574 216.513 213.266Z" fill="#A0616A"/>
<path d="M200.198 207.064H203.537L205.01 202.926L205.304 207.064H206.9L207.759 204.65L207.931 207.064H219.786C219.786 204.686 218.845 202.406 217.169 200.725C215.494 199.044 213.221 198.099 210.852 198.099H209.133C206.764 198.099 204.491 199.044 202.815 200.725C201.14 202.406 200.198 204.686 200.198 207.064Z" fill="#2F2E41"/>
<path d="M218.461 219.757H201.58V240.198H218.461V219.757Z" fill="#CA961B"/>
<path d="M202.51 277.791L204.098 281.936L220.789 277.765L218.446 271.647L202.51 277.791Z" fill="#A0616A"/>
<path d="M203.455 276.213L206.581 284.377L206.581 284.377C207.109 285.757 207.069 287.291 206.471 288.641C205.872 289.992 204.763 291.048 203.388 291.579L203.219 291.644L198.101 278.277L203.455 276.213Z" fill="#2F2E41"/>
<path d="M235.875 256.888C237.215 256.551 238.605 256.455 239.98 256.607C241.077 256.728 242.208 257.034 243.009 257.796C243.984 258.724 244.298 260.159 244.324 261.507C244.367 264.192 243.479 266.808 241.813 268.91C241.406 269.441 240.922 269.909 240.377 270.297C239.789 270.665 239.163 270.968 238.509 271.2L224.01 276.938C220.195 278.447 216.367 279.961 212.389 280.957C212.172 281.061 211.923 281.076 211.697 280.996C211.47 280.917 211.284 280.75 211.179 280.533C211.176 280.527 211.173 280.52 211.17 280.513C209.9 278.693 208.834 276.736 207.992 274.681C207.952 274.632 207.925 274.574 207.912 274.512C207.899 274.45 207.901 274.386 207.918 274.326C207.935 274.265 207.966 274.209 208.009 274.163C208.052 274.117 208.106 274.082 208.165 274.061L218.421 268.149C219.155 267.725 219.898 267.296 220.508 266.706C220.951 266.275 221.314 265.768 221.58 265.209C221.792 264.763 221.812 263.712 222.084 263.383C222.35 263.06 223.259 263.034 223.679 262.908C224.271 262.726 224.852 262.505 225.416 262.249C227.71 261.219 229.753 259.723 231.952 258.517C233.185 257.81 234.503 257.262 235.875 256.888Z" fill="#6D9935"/>
<path opacity="0.1" d="M230.061 261.303C228.299 262.631 226.017 263.852 224.271 265.214C223.675 265.679 213.74 271.284 213.6 272.028C215.229 272.304 225.607 265.019 227.092 264.292C228.576 263.565 229.893 262.54 231.197 261.523C231.529 261.263 232.938 260.484 231.984 260.194C231.446 260.031 230.458 261.038 230.061 261.303Z" fill="black"/>
<path opacity="0.17" d="M195.76 232.8L195.993 230.996C195.993 230.996 204.685 231.632 203.327 233.774C201.968 235.915 198.67 236.11 198.67 236.11L195.76 232.8Z" fill="#2F2E41"/>
<path d="M202.321 224.953C202.819 225.008 203.298 225.173 203.725 225.436C204.152 225.699 204.516 226.054 204.79 226.474C205.04 226.858 205.209 227.289 205.289 227.74C205.369 228.192 205.357 228.654 205.254 229.101C205.151 229.548 204.959 229.969 204.69 230.339C204.421 230.71 204.08 231.021 203.687 231.256C203.543 231.342 203.393 231.416 203.238 231.478L197.895 247.875C197.74 248.199 197.523 248.488 197.256 248.728C196.99 248.967 196.678 249.15 196.341 249.269C196.003 249.387 195.645 249.436 195.288 249.415C194.931 249.394 194.581 249.302 194.26 249.145C193.938 248.988 193.651 248.769 193.414 248.5C193.177 248.231 192.996 247.918 192.88 247.578C192.764 247.238 192.716 246.879 192.739 246.521C192.762 246.163 192.856 245.813 193.014 245.491L198.696 229.276C198.541 228.739 198.521 228.173 198.636 227.626C198.751 227.08 198.999 226.57 199.358 226.143C199.716 225.716 200.174 225.384 200.691 225.176C201.208 224.969 201.767 224.892 202.321 224.953Z" fill="#A0616A"/>
<path d="M195.839 231.149C195.839 231.149 198.901 236.397 203.327 233.774L199.037 250.243H195.423L191.685 249.543L192.732 242.738L195.839 231.149Z" fill="#E5E5E5"/>
<path d="M217.698 234.736L215.162 231.243C215.162 231.243 216.381 227.619 221.108 228.944C221.108 228.944 224.115 235.699 217.698 234.736Z" fill="#E5E5E5"/>
<path opacity="0.17" d="M217.698 234.736L215.162 231.243C215.162 231.243 216.381 227.619 221.108 228.944C221.108 228.944 224.115 235.699 217.698 234.736Z" fill="#2F2E41"/>
<path d="M218.37 222.531C219.102 222.872 219.687 223.465 220.019 224.203C220.352 224.941 220.409 225.774 220.181 226.55L225.863 242.766C226.021 243.087 226.115 243.437 226.138 243.796C226.161 244.154 226.113 244.513 225.997 244.853C225.882 245.192 225.7 245.505 225.463 245.774C225.226 246.043 224.939 246.263 224.617 246.42C224.296 246.577 223.946 246.669 223.589 246.69C223.232 246.711 222.874 246.661 222.536 246.543C222.199 246.425 221.887 246.241 221.621 246.002C221.354 245.763 221.137 245.473 220.982 245.15L215.639 228.752C215.484 228.69 215.334 228.616 215.19 228.531C214.797 228.296 214.456 227.984 214.187 227.614C213.918 227.243 213.726 226.822 213.623 226.376C213.52 225.929 213.508 225.466 213.588 225.015C213.668 224.563 213.837 224.133 214.087 223.749C214.361 223.328 214.725 222.974 215.152 222.711C215.579 222.448 216.058 222.283 216.556 222.228C217.177 222.157 217.805 222.262 218.37 222.531Z" fill="#A0616A"/>
<path d="M215.162 231.243C215.162 231.243 219.347 233.79 221.108 228.944L227.004 244.522L225.252 247.596L224.998 247.617C223.953 247.705 222.903 247.536 221.936 247.126C220.97 246.717 220.118 246.078 219.452 245.264C218.095 243.605 217.17 241.633 216.763 239.526L215.162 231.243Z" fill="#E5E5E5"/>
</g>
<defs>
<clipPath id="clip0_3305_4995">
<rect width="342" height="277" fill="white"/>
</clipPath>
</defs>
</svg>
