<svg xmlns="http://www.w3.org/2000/svg" width="30" height="31" viewBox="0 0 30 31" fill="none">
<path d="M10.9229 7.35822L10.9962 7.47135C9.30424 8.54696 8.1926 9.75072 7.45628 10.9474C6.59645 12.3448 6.28268 13.678 6.11016 14.6574L5.75946 16.6483L7.55474 15.7189C8.01137 15.4825 8.68596 15.3702 9.41376 15.4378L9.41407 15.4378C11.1777 15.6011 12.5388 17.0414 12.5388 18.8033C12.5388 19.6984 12.1832 20.5569 11.5502 21.1898C10.9183 21.8217 10.0616 22.1772 9.16809 22.1783C8.66053 22.1733 8.15898 22.0677 7.69248 21.8675C7.22667 21.6677 6.80506 21.3776 6.45198 21.0139C5.35141 19.8431 4.75 18.559 4.75 16.3171C4.75 12.6757 7.16027 9.26989 10.9229 7.35822ZM23.4229 7.35822L23.4962 7.47135C21.8042 8.54696 20.6926 9.75072 19.9563 10.9474C19.0965 12.3448 18.7827 13.678 18.6102 14.6574L18.2595 16.6483L20.0547 15.7189C20.5114 15.4825 21.186 15.3702 21.9138 15.4378L21.9141 15.4378C23.6777 15.6011 25.0387 17.0414 25.0387 18.8033C25.0387 19.6984 24.6832 20.5569 24.0502 21.1898C23.4183 21.8217 22.5616 22.1772 21.6681 22.1783C21.1605 22.1733 20.659 22.0677 20.1925 21.8675C19.7267 21.6677 19.3051 21.3776 18.952 21.014C17.8514 19.8431 17.25 18.559 17.25 16.3171C17.25 12.6757 19.6603 9.26989 23.4229 7.35822Z" fill="#B6FF58" stroke="#B6FF58" stroke-width="2"/>
</svg>