<svg width="25" height="24" viewBox="0 0 25 24" fill="none" xmlns="http://www.w3.org/2000/svg">
<path fill-rule="evenodd" clip-rule="evenodd" d="M17.8857 14.382C17.5877 14.233 16.1267 13.515 15.8547 13.415C15.5827 13.316 15.3847 13.267 15.1857 13.565C14.9877 13.861 14.4187 14.531 14.2457 14.729C14.0717 14.928 13.8987 14.952 13.6017 14.804C13.3047 14.654 12.3467 14.341 11.2117 13.329C10.3287 12.541 9.7317 11.568 9.5587 11.27C9.3857 10.973 9.5397 10.812 9.6887 10.664C9.8227 10.531 9.9857 10.317 10.1347 10.144C10.2837 9.96998 10.3327 9.84598 10.4317 9.64698C10.5317 9.44898 10.4817 9.27598 10.4067 9.12698C10.3327 8.97798 9.7387 7.51498 9.4907 6.91998C9.2497 6.34098 9.0047 6.41998 8.8227 6.40998C8.6487 6.40198 8.4507 6.39998 8.2527 6.39998C8.0547 6.39998 7.7327 6.47398 7.4607 6.77198C7.1877 7.06898 6.4207 7.78798 6.4207 9.25098C6.4207 10.713 7.4847 12.126 7.6337 12.325C7.7827 12.523 9.7287 15.525 12.7097 16.812C13.4197 17.118 13.9727 17.301 14.4037 17.437C15.1157 17.664 15.7637 17.632 16.2757 17.555C16.8457 17.47 18.0337 16.836 18.2817 16.142C18.5287 15.448 18.5287 14.853 18.4547 14.729C18.3807 14.605 18.1827 14.531 17.8847 14.382H17.8857ZM12.4637 21.785H12.4597C10.6891 21.7853 8.95107 21.3093 7.4277 20.407L7.0677 20.193L3.3257 21.175L4.3247 17.527L4.0897 17.153C3.09984 15.5773 2.576 13.7538 2.5787 11.893C2.5807 6.44298 7.0147 2.00898 12.4677 2.00898C15.1077 2.00898 17.5897 3.03898 19.4557 4.90698C20.3761 5.82356 21.1056 6.91355 21.602 8.11388C22.0984 9.31421 22.3518 10.6011 22.3477 11.9C22.3457 17.35 17.9117 21.785 12.4637 21.785ZM20.8757 3.48798C19.7739 2.3789 18.4629 1.49952 17.0188 0.90078C15.5746 0.302044 14.026 -0.00413728 12.4627 -2.00576e-05C5.9087 -2.00576e-05 0.572703 5.33498 0.570703 11.892C0.567666 13.9787 1.11508 16.0294 2.1577 17.837L0.470703 24L6.7747 22.346C8.51858 23.2961 10.4728 23.7939 12.4587 23.794H12.4637C19.0177 23.794 24.3537 18.459 24.3557 11.901C24.3605 10.3383 24.0555 8.79008 23.4581 7.34601C22.8608 5.90195 21.9831 4.59065 20.8757 3.48798Z" fill="white"/>
</svg>
